<svg width="211" height="255" viewBox="0 0 211 255" fill="none" xmlns="http://www.w3.org/2000/svg">
<g clip-path="url(#clip0_19_358)">
<path d="M84.0048 173.843C85.0646 174.89 86.2873 175.809 87.1421 176.999C95.0551 188.076 105.196 196.745 116.013 204.638C125.654 211.676 136.046 217.209 147.377 220.593C151.787 221.908 156.305 222.788 161.196 223.975C156.521 227.964 151.031 230.915 148.847 237.168C153.248 233.605 157.363 229.591 162.127 226.605C166.9 223.613 172.326 221.634 177.926 218.993C169.292 214.864 159.651 212.558 154.768 202.884C154.013 208.072 156.885 210.79 171.079 218.988C168.603 220.698 166.357 222.11 163.163 221.706C145.22 219.453 129.331 211.882 114.721 200.958C106.186 194.575 98.4228 187.267 91.4333 179.226C84.3288 171.058 77.8976 162.394 72.4688 152.906C65.0649 139.994 58.9983 126.607 54.9205 112.388C50.0984 95.5605 48.0663 78.5197 50.5717 61.418C53.352 42.354 60.7874 25.5268 73.8803 11.6912C74.68 10.8437 75.4059 9.90927 76.1075 8.97795C76.2493 8.78237 76.164 8.41285 76.1995 7.93159C74.8779 6.98422 74.071 8.0304 73.3344 8.77851C66.068 16.1355 60.3851 24.6448 56.074 34.1357C47.2178 53.5987 45.6751 74.2497 48.8899 95.6689C51.4554 112.753 57.4493 128.792 64.9701 144.363C66.2908 147.095 68.2646 149.512 69.8341 152.126C70.5089 153.247 70.8944 154.542 71.4137 155.744C75.6026 161.778 79.8004 167.806 84.0048 173.843Z" fill="black" fill-opacity="0.6"/>
</g>
<defs>
<clipPath id="clip0_19_358">
<rect width="88.41" height="232.459" fill="white" transform="matrix(-0.820616 0.571479 0.571479 0.820616 75.5507 7)"/>
</clipPath>
</defs>
</svg>
