<svg width="85" height="34" viewBox="0 0 85 34" fill="none" xmlns="http://www.w3.org/2000/svg">
<path d="M34 17C34 25.8094 26.6402 33 17.5 33C8.35978 33 1 25.8094 1 17C1 8.19057 8.35978 1 17.5 1C26.6402 1 34 8.19057 34 17Z" stroke="black" stroke-opacity="0.33" stroke-width="2"/>
<path d="M20 10L12 17.3443L20 24" stroke="black" stroke-opacity="0.33" stroke-width="2" stroke-linecap="round"/>
<path d="M51 17C51 25.8094 58.3598 33 67.5 33C76.6402 33 84 25.8094 84 17C84 8.19057 76.6402 1 67.5 1C58.3598 1 51 8.19057 51 17Z" stroke="black" stroke-width="2"/>
<path d="M65 10L73 17.3443L65 24" stroke="black" stroke-width="2" stroke-linecap="round"/>
</svg>
