<svg width="211" height="82" viewBox="0 0 211 82" fill="none" xmlns="http://www.w3.org/2000/svg">
<rect x="172.611" y="51.5557" width="38.1812" height="30.1792" fill="#FF2626"/>
<path d="M198.861 66.6454H184.543M198.861 66.6454L194.088 62.873M198.861 66.6454L194.088 70.4178" stroke="white" stroke-width="1.5" stroke-linecap="round" stroke-linejoin="round"/>
<g filter="url(#filter0_b_543_615)">
<g filter="url(#filter1_b_543_615)">
<rect width="172.611" height="81.7354" fill="white" fill-opacity="0.72"/>
</g>
<path d="M30.6861 28.4721C30.6861 27.8161 30.6101 27.2841 30.4581 26.8761C30.3061 26.4681 30.1021 26.1681 29.8461 25.9761C29.5901 25.7761 29.3021 25.6761 28.9821 25.6761C28.6621 25.6761 28.3741 25.7761 28.1181 25.9761C27.8621 26.1681 27.6581 26.4721 27.5061 26.8881C27.3621 27.3041 27.2901 27.8321 27.2901 28.4721C27.2901 29.3841 27.4381 30.0801 27.7341 30.5601C28.0301 31.0401 28.4461 31.2801 28.9821 31.2801C29.5181 31.2801 29.9341 31.0401 30.2301 30.5601C30.5341 30.0801 30.6861 29.3841 30.6861 28.4721ZM28.9821 32.2881C28.4061 32.2881 27.8941 32.1481 27.4461 31.8681C27.0061 31.5881 26.6621 31.1681 26.4141 30.6081C26.1661 30.0401 26.0421 29.3281 26.0421 28.4721C26.0421 27.5761 26.1781 26.8521 26.4501 26.3001C26.7221 25.7401 27.0821 25.3281 27.5301 25.0641C27.9781 24.8001 28.4621 24.6681 28.9821 24.6681C29.5101 24.6681 29.9981 24.8041 30.4461 25.0761C30.8941 25.3401 31.2501 25.7521 31.5141 26.3121C31.7861 26.8641 31.9221 27.5841 31.9221 28.4721C31.9221 29.3201 31.7981 30.0281 31.5501 30.5961C31.3021 31.1561 30.9581 31.5801 30.5181 31.8681C30.0781 32.1481 29.5661 32.2881 28.9821 32.2881ZM34.4314 29.6961V26.0001L32.9674 26.6361C32.8634 26.5881 32.7714 26.5161 32.6914 26.4201C32.6114 26.3241 32.5714 26.2001 32.5714 26.0481C32.5714 25.7601 32.7514 25.5441 33.1114 25.4001L34.7074 24.7401H34.9834C35.1914 24.7401 35.3554 24.8001 35.4754 24.9201C35.5954 25.0401 35.6554 25.2041 35.6554 25.4121V29.6961H34.4314ZM35.6554 28.9521V32.1321C35.5994 32.1481 35.5194 32.1641 35.4154 32.1801C35.3194 32.2041 35.2114 32.2161 35.0914 32.2161C34.8674 32.2161 34.6994 32.1721 34.5874 32.0841C34.4834 31.9961 34.4314 31.8521 34.4314 31.6521V28.9521H35.6554Z" fill="#616161"/>
<path d="M45.4541 29.1201H72.4541" stroke="#616161"/>
<path d="M82.3141 27.7801V31.5401C82.2741 31.5535 82.2075 31.5735 82.1141 31.6001C82.0275 31.6201 81.9375 31.6301 81.8441 31.6301C81.6708 31.6301 81.5341 31.5801 81.4341 31.4801C81.3341 31.3735 81.2841 31.2368 81.2841 31.0701V27.7801H82.3141ZM81.2841 29.3401V26.1001C81.2841 25.9335 81.3341 25.8001 81.4341 25.7001C81.5341 25.5935 81.6708 25.5401 81.8441 25.5401C81.9375 25.5401 82.0275 25.5501 82.1141 25.5701C82.2075 25.5901 82.2741 25.6101 82.3141 25.6301V29.3501L81.2841 29.3401ZM81.8441 28.0901H84.8541C84.8808 28.1235 84.9041 28.1768 84.9241 28.2501C84.9508 28.3235 84.9641 28.4035 84.9641 28.4901C84.9641 28.6301 84.9308 28.7401 84.8641 28.8201C84.8041 28.8935 84.7108 28.9301 84.5841 28.9301H81.8441V28.0901ZM81.8441 30.7801H85.2041C85.2308 30.8201 85.2541 30.8768 85.2741 30.9501C85.3008 31.0168 85.3141 31.0968 85.3141 31.1901C85.3141 31.3301 85.2808 31.4401 85.2141 31.5201C85.1541 31.5935 85.0608 31.6301 84.9341 31.6301H81.8441V30.7801ZM81.8441 25.5401H85.1641C85.1841 25.5801 85.2075 25.6368 85.2341 25.7101C85.2608 25.7835 85.2741 25.8635 85.2741 25.9501C85.2741 26.0901 85.2408 26.2001 85.1741 26.2801C85.1075 26.3601 85.0141 26.4001 84.8941 26.4001H81.8441V25.5401ZM88.1648 28.8401C88.4248 28.4935 88.6714 28.1701 88.9048 27.8701C89.1448 27.5635 89.3881 27.2335 89.6348 26.8801C89.6681 26.8735 89.6914 26.8701 89.7048 26.8701C89.7181 26.8701 89.7381 26.8701 89.7648 26.8701C89.9448 26.8701 90.0848 26.9101 90.1848 26.9901C90.2914 27.0701 90.3448 27.1768 90.3448 27.3101C90.3448 27.4101 90.3248 27.5035 90.2848 27.5901C90.2448 27.6701 90.1714 27.7701 90.0648 27.8901C89.8514 28.1501 89.6348 28.4101 89.4148 28.6701C89.1948 28.9301 88.9781 29.1868 88.7648 29.4401L88.4548 29.6601C88.2081 29.9868 87.9581 30.3235 87.7048 30.6701C87.4581 31.0101 87.2148 31.3468 86.9748 31.6801C86.9681 31.6801 86.9448 31.6801 86.9048 31.6801C86.8648 31.6801 86.8381 31.6801 86.8248 31.6801C86.6248 31.6801 86.4748 31.6401 86.3748 31.5601C86.2748 31.4735 86.2248 31.3668 86.2248 31.2401C86.2248 31.1601 86.2414 31.0835 86.2748 31.0101C86.3148 30.9301 86.3881 30.8268 86.4948 30.7001C86.7348 30.3935 86.9814 30.0935 87.2348 29.8001C87.4881 29.5001 87.7348 29.1968 87.9748 28.8901L88.1648 28.8401ZM88.8148 29.0801C89.0881 29.4401 89.3581 29.7935 89.6248 30.1401C89.8981 30.4868 90.1714 30.8335 90.4448 31.1801C90.4248 31.3401 90.3648 31.4668 90.2648 31.5601C90.1714 31.6468 90.0514 31.6901 89.9048 31.6901C89.7648 31.6901 89.6481 31.6535 89.5548 31.5801C89.4614 31.5001 89.3648 31.3901 89.2648 31.2501C89.0714 30.9835 88.8714 30.7035 88.6648 30.4101C88.4581 30.1168 88.2581 29.8401 88.0648 29.5801L87.8348 29.3801C87.5481 29.0335 87.2748 28.7001 87.0148 28.3801C86.7548 28.0601 86.4914 27.7335 86.2248 27.4001C86.2581 27.2335 86.3214 27.1035 86.4148 27.0101C86.5081 26.9168 86.6214 26.8701 86.7548 26.8701C86.8948 26.8701 87.0048 26.9068 87.0848 26.9801C87.1648 27.0468 87.2481 27.1368 87.3348 27.2501C87.5281 27.5101 87.7281 27.7901 87.9348 28.0901C88.1481 28.3835 88.3648 28.6668 88.5848 28.9401L88.8148 29.0801ZM93.5566 31.7501C93.2833 31.7501 93.03 31.7135 92.7966 31.6401C92.5633 31.5668 92.3833 31.4835 92.2566 31.3901V30.4801C92.39 30.6001 92.55 30.7068 92.7366 30.8001C92.9233 30.8868 93.15 30.9301 93.4166 30.9301C93.85 30.9301 94.1933 30.7968 94.4466 30.5301C94.7066 30.2635 94.8366 29.8435 94.8366 29.2701C94.8366 28.8635 94.7733 28.5435 94.6466 28.3101C94.52 28.0701 94.35 27.8968 94.1366 27.7901C93.9233 27.6835 93.6866 27.6301 93.4266 27.6301C93.2133 27.6301 93.03 27.6568 92.8766 27.7101C92.73 27.7635 92.5966 27.8201 92.4766 27.8801V31.1201H91.4566V27.8401C91.4566 27.6935 91.4833 27.5768 91.5366 27.4901C91.5966 27.3968 91.6966 27.3068 91.8366 27.2201C92.0233 27.1135 92.25 27.0201 92.5166 26.9401C92.79 26.8535 93.0933 26.8101 93.4266 26.8101C93.8933 26.8101 94.31 26.8968 94.6766 27.0701C95.0433 27.2368 95.3333 27.5035 95.5466 27.8701C95.7666 28.2301 95.8766 28.6968 95.8766 29.2701C95.8766 29.8168 95.7766 30.2768 95.5766 30.6501C95.3833 31.0168 95.11 31.2935 94.7566 31.4801C94.41 31.6601 94.01 31.7501 93.5566 31.7501ZM91.4566 30.8001L92.4766 30.8201V33.4201C92.4366 33.4335 92.3733 33.4468 92.2866 33.4601C92.2066 33.4801 92.1166 33.4901 92.0166 33.4901C91.83 33.4901 91.69 33.4535 91.5966 33.3801C91.5033 33.3068 91.4566 33.1868 91.4566 33.0201V30.8001ZM98.783 30.9701C99.023 30.9701 99.2264 30.9468 99.393 30.9001C99.5664 30.8468 99.693 30.7935 99.773 30.7401V29.4501L98.653 29.5601C98.3464 29.5868 98.1164 29.6568 97.963 29.7701C97.8097 29.8835 97.733 30.0468 97.733 30.2601C97.733 30.4801 97.8197 30.6535 97.993 30.7801C98.1664 30.9068 98.4297 30.9701 98.783 30.9701ZM98.753 26.8101C99.3664 26.8101 99.853 26.9435 100.213 27.2101C100.58 27.4768 100.763 27.9001 100.763 28.4801V30.8201C100.763 30.9735 100.73 31.0935 100.663 31.1801C100.596 31.2601 100.506 31.3368 100.393 31.4101C100.22 31.5035 99.993 31.5835 99.713 31.6501C99.4397 31.7235 99.1297 31.7601 98.783 31.7601C98.1364 31.7601 97.6297 31.6368 97.263 31.3901C96.903 31.1368 96.723 30.7668 96.723 30.2801C96.723 29.8401 96.8664 29.5035 97.153 29.2701C97.4397 29.0368 97.8464 28.8935 98.373 28.8401L99.773 28.7001V28.4701C99.773 28.1701 99.6764 27.9535 99.483 27.8201C99.2897 27.6801 99.0264 27.6101 98.693 27.6101C98.4264 27.6101 98.1664 27.6468 97.913 27.7201C97.6664 27.7935 97.4464 27.8801 97.253 27.9801C97.193 27.9268 97.1397 27.8635 97.093 27.7901C97.0464 27.7101 97.023 27.6301 97.023 27.5501C97.023 27.3368 97.1364 27.1801 97.363 27.0801C97.543 26.9935 97.753 26.9268 97.993 26.8801C98.2397 26.8335 98.493 26.8101 98.753 26.8101ZM106.311 29.5501H105.301V28.5901C105.301 28.2568 105.204 28.0135 105.011 27.8601C104.824 27.7068 104.571 27.6301 104.251 27.6301C104.017 27.6301 103.807 27.6601 103.621 27.7201C103.441 27.7735 103.281 27.8401 103.141 27.9201V29.5501H102.121V27.9001C102.121 27.7468 102.151 27.6235 102.211 27.5301C102.277 27.4368 102.381 27.3435 102.521 27.2501C102.707 27.1368 102.951 27.0368 103.251 26.9501C103.551 26.8568 103.887 26.8101 104.261 26.8101C104.901 26.8101 105.401 26.9568 105.761 27.2501C106.127 27.5368 106.311 27.9701 106.311 28.5501V29.5501ZM103.141 29.0301V31.6001C103.101 31.6135 103.037 31.6301 102.951 31.6501C102.871 31.6701 102.781 31.6801 102.681 31.6801C102.494 31.6801 102.354 31.6468 102.261 31.5801C102.167 31.5068 102.121 31.3835 102.121 31.2101V29.0301H103.141ZM106.311 29.0301V31.6001C106.271 31.6135 106.207 31.6301 106.121 31.6501C106.034 31.6701 105.944 31.6801 105.851 31.6801C105.657 31.6801 105.517 31.6468 105.431 31.5801C105.344 31.5068 105.301 31.3835 105.301 31.2101V29.0301H106.311ZM111.167 30.3401C111.167 30.7868 111 31.1368 110.667 31.3901C110.34 31.6368 109.864 31.7601 109.237 31.7601C108.71 31.7601 108.28 31.6801 107.947 31.5201C107.62 31.3601 107.457 31.1701 107.457 30.9501C107.457 30.8501 107.48 30.7568 107.527 30.6701C107.58 30.5835 107.65 30.5135 107.737 30.4601C107.924 30.5868 108.137 30.7001 108.377 30.8001C108.617 30.9001 108.894 30.9501 109.207 30.9501C109.84 30.9501 110.157 30.7468 110.157 30.3401C110.157 30.1735 110.1 30.0368 109.987 29.9301C109.88 29.8235 109.72 29.7435 109.507 29.6901L108.797 29.5101C108.35 29.4101 108.02 29.2501 107.807 29.0301C107.6 28.8101 107.497 28.5268 107.497 28.1801C107.497 27.7935 107.654 27.4701 107.967 27.2101C108.287 26.9435 108.747 26.8101 109.347 26.8101C109.667 26.8101 109.947 26.8435 110.187 26.9101C110.427 26.9701 110.614 27.0568 110.747 27.1701C110.887 27.2768 110.957 27.4001 110.957 27.5401C110.957 27.6401 110.934 27.7301 110.887 27.8101C110.84 27.8901 110.78 27.9501 110.707 27.9901C110.627 27.9368 110.52 27.8835 110.387 27.8301C110.26 27.7701 110.11 27.7201 109.937 27.6801C109.77 27.6335 109.594 27.6101 109.407 27.6101C109.134 27.6101 108.914 27.6601 108.747 27.7601C108.58 27.8601 108.497 28.0001 108.497 28.1801C108.497 28.3135 108.544 28.4268 108.637 28.5201C108.73 28.6135 108.887 28.6868 109.107 28.7401L109.707 28.8801C110.207 29.0001 110.574 29.1801 110.807 29.4201C111.047 29.6535 111.167 29.9601 111.167 30.3401ZM112.217 25.5101C112.217 25.3435 112.274 25.2035 112.387 25.0901C112.507 24.9701 112.657 24.9101 112.837 24.9101C113.017 24.9101 113.164 24.9701 113.277 25.0901C113.39 25.2035 113.447 25.3435 113.447 25.5101C113.447 25.6768 113.39 25.8168 113.277 25.9301C113.164 26.0435 113.017 26.1001 112.837 26.1001C112.657 26.1001 112.507 26.0435 112.387 25.9301C112.274 25.8168 112.217 25.6768 112.217 25.5101ZM113.347 28.9801V31.6001C113.3 31.6135 113.234 31.6301 113.147 31.6501C113.067 31.6701 112.977 31.6801 112.877 31.6801C112.697 31.6801 112.56 31.6468 112.467 31.5801C112.374 31.5068 112.327 31.3835 112.327 31.2101V28.9801H113.347ZM112.327 29.4901V26.9701C112.374 26.9568 112.437 26.9435 112.517 26.9301C112.604 26.9101 112.697 26.9001 112.797 26.9001C112.984 26.9001 113.12 26.9368 113.207 27.0101C113.3 27.0768 113.347 27.1968 113.347 27.3701V29.4901H112.327ZM119.257 29.2801C119.257 29.7868 119.16 30.2268 118.967 30.6001C118.773 30.9668 118.5 31.2535 118.147 31.4601C117.793 31.6601 117.38 31.7601 116.907 31.7601C116.427 31.7601 116.01 31.6601 115.657 31.4601C115.303 31.2535 115.03 30.9668 114.837 30.6001C114.643 30.2268 114.547 29.7868 114.547 29.2801C114.547 28.7735 114.643 28.3368 114.837 27.9701C115.037 27.5968 115.313 27.3101 115.667 27.1101C116.02 26.9101 116.433 26.8101 116.907 26.8101C117.373 26.8101 117.783 26.9135 118.137 27.1201C118.49 27.3201 118.763 27.6035 118.957 27.9701C119.157 28.3368 119.257 28.7735 119.257 29.2801ZM116.907 27.6301C116.5 27.6301 116.177 27.7768 115.937 28.0701C115.703 28.3635 115.587 28.7668 115.587 29.2801C115.587 29.8068 115.7 30.2168 115.927 30.5101C116.16 30.7968 116.487 30.9401 116.907 30.9401C117.32 30.9401 117.64 30.7935 117.867 30.5001C118.1 30.2068 118.217 29.8001 118.217 29.2801C118.217 28.7668 118.1 28.3635 117.867 28.0701C117.633 27.7768 117.313 27.6301 116.907 27.6301ZM124.582 29.5501H123.572V28.5901C123.572 28.2568 123.476 28.0135 123.282 27.8601C123.096 27.7068 122.842 27.6301 122.522 27.6301C122.289 27.6301 122.079 27.6601 121.892 27.7201C121.712 27.7735 121.552 27.8401 121.412 27.9201V29.5501H120.392V27.9001C120.392 27.7468 120.422 27.6235 120.482 27.5301C120.549 27.4368 120.652 27.3435 120.792 27.2501C120.979 27.1368 121.222 27.0368 121.522 26.9501C121.822 26.8568 122.159 26.8101 122.532 26.8101C123.172 26.8101 123.672 26.9568 124.032 27.2501C124.399 27.5368 124.582 27.9701 124.582 28.5501V29.5501ZM121.412 29.0301V31.6001C121.372 31.6135 121.309 31.6301 121.222 31.6501C121.142 31.6701 121.052 31.6801 120.952 31.6801C120.766 31.6801 120.626 31.6468 120.532 31.5801C120.439 31.5068 120.392 31.3835 120.392 31.2101V29.0301H121.412ZM124.582 29.0301V31.6001C124.542 31.6135 124.479 31.6301 124.392 31.6501C124.306 31.6701 124.216 31.6801 124.122 31.6801C123.929 31.6801 123.789 31.6468 123.702 31.5801C123.616 31.5068 123.572 31.3835 123.572 31.2101V29.0301H124.582ZM130.07 31.7501C129.797 31.7501 129.544 31.7135 129.31 31.6401C129.077 31.5668 128.897 31.4835 128.77 31.3901V30.4801C128.904 30.6001 129.064 30.7068 129.25 30.8001C129.437 30.8868 129.664 30.9301 129.93 30.9301C130.364 30.9301 130.707 30.7968 130.96 30.5301C131.22 30.2635 131.35 29.8435 131.35 29.2701C131.35 28.8635 131.287 28.5435 131.16 28.3101C131.034 28.0701 130.864 27.8968 130.65 27.7901C130.437 27.6835 130.2 27.6301 129.94 27.6301C129.727 27.6301 129.544 27.6568 129.39 27.7101C129.244 27.7635 129.11 27.8201 128.99 27.8801V31.1201H127.97V27.8401C127.97 27.6935 127.997 27.5768 128.05 27.4901C128.11 27.3968 128.21 27.3068 128.35 27.2201C128.537 27.1135 128.764 27.0201 129.03 26.9401C129.304 26.8535 129.607 26.8101 129.94 26.8101C130.407 26.8101 130.824 26.8968 131.19 27.0701C131.557 27.2368 131.847 27.5035 132.06 27.8701C132.28 28.2301 132.39 28.6968 132.39 29.2701C132.39 29.8168 132.29 30.2768 132.09 30.6501C131.897 31.0168 131.624 31.2935 131.27 31.4801C130.924 31.6601 130.524 31.7501 130.07 31.7501ZM127.97 30.8001L128.99 30.8201V33.4201C128.95 33.4335 128.887 33.4468 128.8 33.4601C128.72 33.4801 128.63 33.4901 128.53 33.4901C128.344 33.4901 128.204 33.4535 128.11 33.3801C128.017 33.3068 127.97 33.1868 127.97 33.0201V30.8001ZM134.607 29.0701V31.6001C134.567 31.6135 134.504 31.6301 134.417 31.6501C134.337 31.6701 134.247 31.6801 134.147 31.6801C133.961 31.6801 133.821 31.6468 133.727 31.5801C133.641 31.5068 133.597 31.3835 133.597 31.2101V28.9801L134.607 29.0701ZM133.597 29.4901V25.1301C133.637 25.1168 133.701 25.1035 133.787 25.0901C133.874 25.0701 133.964 25.0601 134.057 25.0601C134.251 25.0601 134.391 25.0935 134.477 25.1601C134.564 25.2268 134.607 25.3468 134.607 25.5201V29.5701L133.597 29.4901ZM137.826 30.9701C138.066 30.9701 138.269 30.9468 138.436 30.9001C138.609 30.8468 138.736 30.7935 138.816 30.7401V29.4501L137.696 29.5601C137.389 29.5868 137.159 29.6568 137.006 29.7701C136.853 29.8835 136.776 30.0468 136.776 30.2601C136.776 30.4801 136.863 30.6535 137.036 30.7801C137.209 30.9068 137.473 30.9701 137.826 30.9701ZM137.796 26.8101C138.409 26.8101 138.896 26.9435 139.256 27.2101C139.623 27.4768 139.806 27.9001 139.806 28.4801V30.8201C139.806 30.9735 139.773 31.0935 139.706 31.1801C139.639 31.2601 139.549 31.3368 139.436 31.4101C139.263 31.5035 139.036 31.5835 138.756 31.6501C138.483 31.7235 138.173 31.7601 137.826 31.7601C137.179 31.7601 136.673 31.6368 136.306 31.3901C135.946 31.1368 135.766 30.7668 135.766 30.2801C135.766 29.8401 135.909 29.5035 136.196 29.2701C136.483 29.0368 136.889 28.8935 137.416 28.8401L138.816 28.7001V28.4701C138.816 28.1701 138.719 27.9535 138.526 27.8201C138.333 27.6801 138.069 27.6101 137.736 27.6101C137.469 27.6101 137.209 27.6468 136.956 27.7201C136.709 27.7935 136.489 27.8801 136.296 27.9801C136.236 27.9268 136.183 27.8635 136.136 27.7901C136.089 27.7101 136.066 27.6301 136.066 27.5501C136.066 27.3368 136.179 27.1801 136.406 27.0801C136.586 26.9935 136.796 26.9268 137.036 26.8801C137.283 26.8335 137.536 26.8101 137.796 26.8101ZM145.354 29.5501H144.344V28.5901C144.344 28.2568 144.247 28.0135 144.054 27.8601C143.867 27.7068 143.614 27.6301 143.294 27.6301C143.06 27.6301 142.85 27.6601 142.664 27.7201C142.484 27.7735 142.324 27.8401 142.184 27.9201V29.5501H141.164V27.9001C141.164 27.7468 141.194 27.6235 141.254 27.5301C141.32 27.4368 141.424 27.3435 141.564 27.2501C141.75 27.1368 141.994 27.0368 142.294 26.9501C142.594 26.8568 142.93 26.8101 143.304 26.8101C143.944 26.8101 144.444 26.9568 144.804 27.2501C145.17 27.5368 145.354 27.9701 145.354 28.5501V29.5501ZM142.184 29.0301V31.6001C142.144 31.6135 142.08 31.6301 141.994 31.6501C141.914 31.6701 141.824 31.6801 141.724 31.6801C141.537 31.6801 141.397 31.6468 141.304 31.5801C141.21 31.5068 141.164 31.3835 141.164 31.2101V29.0301H142.184ZM145.354 29.0301V31.6001C145.314 31.6135 145.25 31.6301 145.164 31.6501C145.077 31.6701 144.987 31.6801 144.894 31.6801C144.7 31.6801 144.56 31.6468 144.474 31.5801C144.387 31.5068 144.344 31.3835 144.344 31.2101V29.0301H145.354ZM150.21 30.3401C150.21 30.7868 150.043 31.1368 149.71 31.3901C149.383 31.6368 148.907 31.7601 148.28 31.7601C147.753 31.7601 147.323 31.6801 146.99 31.5201C146.663 31.3601 146.5 31.1701 146.5 30.9501C146.5 30.8501 146.523 30.7568 146.57 30.6701C146.623 30.5835 146.693 30.5135 146.78 30.4601C146.967 30.5868 147.18 30.7001 147.42 30.8001C147.66 30.9001 147.937 30.9501 148.25 30.9501C148.883 30.9501 149.2 30.7468 149.2 30.3401C149.2 30.1735 149.143 30.0368 149.03 29.9301C148.923 29.8235 148.763 29.7435 148.55 29.6901L147.84 29.5101C147.393 29.4101 147.063 29.2501 146.85 29.0301C146.643 28.8101 146.54 28.5268 146.54 28.1801C146.54 27.7935 146.697 27.4701 147.01 27.2101C147.33 26.9435 147.79 26.8101 148.39 26.8101C148.71 26.8101 148.99 26.8435 149.23 26.9101C149.47 26.9701 149.657 27.0568 149.79 27.1701C149.93 27.2768 150 27.4001 150 27.5401C150 27.6401 149.977 27.7301 149.93 27.8101C149.883 27.8901 149.823 27.9501 149.75 27.9901C149.67 27.9368 149.563 27.8835 149.43 27.8301C149.303 27.7701 149.153 27.7201 148.98 27.6801C148.813 27.6335 148.637 27.6101 148.45 27.6101C148.177 27.6101 147.957 27.6601 147.79 27.7601C147.623 27.8601 147.54 28.0001 147.54 28.1801C147.54 28.3135 147.587 28.4268 147.68 28.5201C147.773 28.6135 147.93 28.6868 148.15 28.7401L148.75 28.8801C149.25 29.0001 149.617 29.1801 149.85 29.4201C150.09 29.6535 150.21 29.9601 150.21 30.3401Z" fill="#616161"/>
<path d="M28.2821 46.7223V52.1403L27.4701 52.2523C27.1901 52.2523 26.9661 52.1683 26.7981 52.0003C26.6301 51.8323 26.5461 51.6083 26.5461 51.3283V46.7223H28.2821ZM27.4701 50.8243H31.9361C31.9921 50.8989 32.0388 50.9969 32.0761 51.1183C32.1228 51.2396 32.1461 51.3703 32.1461 51.5103C32.1461 51.7529 32.0855 51.9396 31.9641 52.0703C31.8521 52.1916 31.6981 52.2523 31.5021 52.2523H27.4701V50.8243ZM26.5461 48.6403V43.7403C26.6208 43.7216 26.7328 43.6983 26.8821 43.6703C27.0408 43.6423 27.1995 43.6283 27.3581 43.6283C27.6755 43.6283 27.9088 43.6889 28.0581 43.8103C28.2075 43.9223 28.2821 44.1323 28.2821 44.4403V48.6403H26.5461ZM33.3622 43.6423C33.3622 43.3716 33.4555 43.1476 33.6422 42.9703C33.8288 42.7836 34.0622 42.6903 34.3422 42.6903C34.6408 42.6903 34.8788 42.7836 35.0562 42.9703C35.2335 43.1476 35.3222 43.3716 35.3222 43.6423C35.3222 43.9036 35.2335 44.1276 35.0562 44.3143C34.8788 44.5009 34.6408 44.5943 34.3422 44.5943C34.0622 44.5943 33.8288 44.5009 33.6422 44.3143C33.4555 44.1276 33.3622 43.9036 33.3622 43.6423ZM35.1962 48.5423V52.2103C35.1215 52.2383 35.0142 52.2616 34.8742 52.2803C34.7435 52.3083 34.5942 52.3223 34.4262 52.3223C34.1182 52.3223 33.8848 52.2663 33.7262 52.1543C33.5768 52.0423 33.5022 51.8416 33.5022 51.5523V48.5423H35.1962ZM33.5022 49.4103V45.6723C33.5768 45.6536 33.6842 45.6349 33.8242 45.6163C33.9642 45.5883 34.1135 45.5743 34.2722 45.5743C34.5895 45.5743 34.8228 45.6303 34.9722 45.7423C35.1215 45.8543 35.1962 46.0596 35.1962 46.3583V49.4103H33.5022ZM42.8092 49.2703H41.1152V47.8563C41.1152 47.4829 41.0032 47.2076 40.7792 47.0303C40.5645 46.8529 40.2845 46.7643 39.9392 46.7643C39.7059 46.7643 39.4819 46.8016 39.2672 46.8763C39.0619 46.9509 38.8892 47.0349 38.7492 47.1283V49.2703H37.0692V47.0303C37.0692 46.8063 37.1112 46.6243 37.1952 46.4843C37.2885 46.3443 37.4332 46.2089 37.6292 46.0783C37.9092 45.8916 38.2592 45.7376 38.6792 45.6163C39.1085 45.4856 39.5472 45.4203 39.9952 45.4203C40.4525 45.4203 40.8725 45.4903 41.2552 45.6303C41.6379 45.7703 41.9505 45.9803 42.1932 46.2603C42.2585 46.3163 42.3192 46.3723 42.3752 46.4283C42.4312 46.4843 42.4779 46.5496 42.5152 46.6243C42.5992 46.7549 42.6692 46.9136 42.7252 47.1003C42.7812 47.2776 42.8092 47.4689 42.8092 47.6743V49.2703ZM46.8692 49.2703H45.1752V47.8563C45.1752 47.4829 45.0679 47.2076 44.8532 47.0303C44.6479 46.8529 44.3725 46.7643 44.0272 46.7643C43.7659 46.7643 43.5139 46.8203 43.2712 46.9323C43.0379 47.0349 42.8325 47.1749 42.6552 47.3523L41.8152 46.3023C42.0952 46.0689 42.4312 45.8636 42.8232 45.6863C43.2245 45.5089 43.6959 45.4203 44.2372 45.4203C44.7225 45.4203 45.1659 45.5043 45.5672 45.6723C45.9685 45.8309 46.2859 46.0876 46.5192 46.4423C46.7525 46.7876 46.8692 47.2403 46.8692 47.8003V49.2703ZM38.7492 48.5843V52.2103C38.6745 52.2383 38.5672 52.2616 38.4272 52.2803C38.2965 52.3083 38.1519 52.3223 37.9932 52.3223C37.6759 52.3223 37.4425 52.2663 37.2932 52.1543C37.1439 52.0423 37.0692 51.8416 37.0692 51.5523V48.5843H38.7492ZM42.8092 48.5843V52.2103C42.7345 52.2383 42.6272 52.2616 42.4872 52.2803C42.3472 52.3083 42.1979 52.3223 42.0392 52.3223C41.7219 52.3223 41.4885 52.2663 41.3392 52.1543C41.1899 52.0423 41.1152 51.8416 41.1152 51.5523V48.5843H42.8092ZM46.8692 48.5843V52.2103C46.7945 52.2383 46.6872 52.2616 46.5472 52.2803C46.4072 52.3083 46.2579 52.3223 46.0992 52.3223C45.7819 52.3223 45.5485 52.2663 45.3992 52.1543C45.2499 52.0423 45.1752 51.8416 45.1752 51.5523V48.5843H46.8692ZM49.3623 48.6123L53.1423 48.0523C53.1143 47.6883 52.9743 47.3756 52.7223 47.1143C52.4703 46.8436 52.111 46.7083 51.6443 46.7083C51.159 46.7083 50.753 46.8763 50.4263 47.2123C50.109 47.5483 49.9456 48.0289 49.9363 48.6543L49.9783 49.3543C50.0623 49.9609 50.2956 50.4089 50.6783 50.6983C51.061 50.9876 51.5463 51.1323 52.1343 51.1323C52.5263 51.1323 52.8856 51.0763 53.2123 50.9643C53.5483 50.8429 53.819 50.7123 54.0243 50.5723C54.1456 50.6469 54.2436 50.7496 54.3183 50.8803C54.4023 51.0016 54.4443 51.1369 54.4443 51.2863C54.4443 51.5196 54.337 51.7249 54.1223 51.9023C53.9076 52.0703 53.6183 52.2009 53.2543 52.2943C52.8996 52.3876 52.489 52.4343 52.0223 52.4343C51.3036 52.4343 50.6643 52.3036 50.1043 52.0423C49.5536 51.7716 49.1243 51.3703 48.8163 50.8383C48.5083 50.3063 48.3543 49.6483 48.3543 48.8643C48.3543 48.2949 48.4383 47.7956 48.6063 47.3663C48.7836 46.9369 49.0216 46.5776 49.3203 46.2883C49.6283 45.9989 49.9783 45.7843 50.3703 45.6443C50.7716 45.4949 51.1963 45.4203 51.6443 45.4203C52.251 45.4203 52.783 45.5463 53.2403 45.7983C53.707 46.0503 54.071 46.3956 54.3323 46.8343C54.5936 47.2729 54.7243 47.7723 54.7243 48.3323C54.7243 48.5936 54.659 48.7896 54.5283 48.9203C54.3976 49.0416 54.2156 49.1163 53.9823 49.1443L49.4323 49.8023L49.3623 48.6123ZM56.3371 48.7663V44.6643C56.3371 44.3843 56.4211 44.1603 56.5891 43.9923C56.7571 43.8243 56.9811 43.7403 57.2611 43.7403C57.4198 43.7403 57.5738 43.7543 57.7231 43.7823C57.8725 43.8103 57.9845 43.8336 58.0591 43.8523V48.7663H56.3371ZM57.2471 47.4643H61.4331C61.4798 47.5389 61.5218 47.6369 61.5591 47.7583C61.6058 47.8703 61.6291 47.9963 61.6291 48.1363C61.6291 48.3696 61.5731 48.5516 61.4611 48.6823C61.3491 48.8036 61.1951 48.8643 60.9991 48.8643H57.2471V47.4643ZM57.2611 43.7403H61.9231C61.9698 43.8056 62.0118 43.8989 62.0491 44.0203C62.0865 44.1416 62.1051 44.2723 62.1051 44.4123C62.1051 44.6549 62.0491 44.8416 61.9371 44.9723C61.8251 45.0936 61.6711 45.1543 61.4751 45.1543H57.2611V43.7403ZM58.0731 47.6463V52.2243C57.9985 52.2429 57.8865 52.2616 57.7371 52.2803C57.5878 52.3083 57.4338 52.3223 57.2751 52.3223C56.9485 52.3223 56.7105 52.2616 56.5611 52.1403C56.4118 52.0189 56.3371 51.8136 56.3371 51.5243V47.6463H58.0731ZM63.2899 43.6423C63.2899 43.3716 63.3832 43.1476 63.5699 42.9703C63.7566 42.7836 63.9899 42.6903 64.2699 42.6903C64.5686 42.6903 64.8066 42.7836 64.9839 42.9703C65.1612 43.1476 65.2499 43.3716 65.2499 43.6423C65.2499 43.9036 65.1612 44.1276 64.9839 44.3143C64.8066 44.5009 64.5686 44.5943 64.2699 44.5943C63.9899 44.5943 63.7566 44.5009 63.5699 44.3143C63.3832 44.1276 63.2899 43.9036 63.2899 43.6423ZM65.1239 48.5423V52.2103C65.0492 52.2383 64.9419 52.2616 64.8019 52.2803C64.6712 52.3083 64.5219 52.3223 64.3539 52.3223C64.0459 52.3223 63.8126 52.2663 63.6539 52.1543C63.5046 52.0423 63.4299 51.8416 63.4299 51.5523V48.5423H65.1239ZM63.4299 49.4103V45.6723C63.5046 45.6536 63.6119 45.6349 63.7519 45.6163C63.8919 45.5883 64.0412 45.5743 64.1999 45.5743C64.5172 45.5743 64.7506 45.6303 64.8999 45.7423C65.0492 45.8543 65.1239 46.0596 65.1239 46.3583V49.4103H63.4299ZM70.2729 45.4203C70.8703 45.4203 71.4069 45.5509 71.8829 45.8123C72.3683 46.0736 72.7509 46.4609 73.0309 46.9743C73.3109 47.4876 73.4509 48.1363 73.4509 48.9203C73.4509 49.6949 73.3016 50.3436 73.0029 50.8663C72.7136 51.3889 72.3076 51.7809 71.7849 52.0423C71.2623 52.3036 70.6509 52.4343 69.9509 52.4343C69.4283 52.4343 68.9663 52.3689 68.5649 52.2383C68.1729 52.1169 67.8463 51.9723 67.5849 51.8043C67.3889 51.6736 67.2443 51.5336 67.1509 51.3843C67.0669 51.2349 67.0249 51.0576 67.0249 50.8523V46.3163H68.7049V50.7543C68.8263 50.8383 68.9943 50.9176 69.2089 50.9923C69.4236 51.0576 69.6709 51.0903 69.9509 51.0903C70.4829 51.0903 70.9123 50.9129 71.2389 50.5583C71.5656 50.1943 71.7289 49.6483 71.7289 48.9203C71.7289 48.1736 71.5656 47.6276 71.2389 47.2823C70.9216 46.9369 70.5016 46.7643 69.9789 46.7643C69.6523 46.7643 69.3583 46.8296 69.0969 46.9603C68.8449 47.0816 68.6349 47.2216 68.4669 47.3803L68.3409 46.0223C68.5556 45.8823 68.8216 45.7469 69.1389 45.6163C69.4656 45.4856 69.8436 45.4203 70.2729 45.4203ZM67.0249 46.6943V43.1383C67.0903 43.1196 67.1929 43.0963 67.3329 43.0683C67.4729 43.0403 67.6269 43.0263 67.7949 43.0263C68.1123 43.0263 68.3409 43.0869 68.4809 43.2083C68.6303 43.3203 68.7049 43.5209 68.7049 43.8103V46.6943H67.0249ZM75.6123 48.6123L79.3923 48.0523C79.3643 47.6883 79.2243 47.3756 78.9723 47.1143C78.7203 46.8436 78.361 46.7083 77.8943 46.7083C77.409 46.7083 77.003 46.8763 76.6763 47.2123C76.359 47.5483 76.1956 48.0289 76.1863 48.6543L76.2283 49.3543C76.3123 49.9609 76.5456 50.4089 76.9283 50.6983C77.311 50.9876 77.7963 51.1323 78.3843 51.1323C78.7763 51.1323 79.1356 51.0763 79.4623 50.9643C79.7983 50.8429 80.069 50.7123 80.2743 50.5723C80.3956 50.6469 80.4936 50.7496 80.5683 50.8803C80.6523 51.0016 80.6943 51.1369 80.6943 51.2863C80.6943 51.5196 80.587 51.7249 80.3723 51.9023C80.1576 52.0703 79.8683 52.2009 79.5043 52.2943C79.1496 52.3876 78.739 52.4343 78.2723 52.4343C77.5536 52.4343 76.9143 52.3036 76.3543 52.0423C75.8036 51.7716 75.3743 51.3703 75.0663 50.8383C74.7583 50.3063 74.6043 49.6483 74.6043 48.8643C74.6043 48.2949 74.6883 47.7956 74.8563 47.3663C75.0336 46.9369 75.2716 46.5776 75.5703 46.2883C75.8783 45.9989 76.2283 45.7843 76.6203 45.6443C77.0216 45.4949 77.4463 45.4203 77.8943 45.4203C78.501 45.4203 79.033 45.5463 79.4903 45.7983C79.957 46.0503 80.321 46.3956 80.5823 46.8343C80.8436 47.2729 80.9743 47.7723 80.9743 48.3323C80.9743 48.5936 80.909 48.7896 80.7783 48.9203C80.6476 49.0416 80.4656 49.1163 80.2323 49.1443L75.6823 49.8023L75.6123 48.6123ZM84.0851 49.1163H82.4051V47.0583C82.4051 46.8249 82.4565 46.6289 82.5591 46.4703C82.6711 46.3116 82.8298 46.1623 83.0351 46.0223C83.3151 45.8449 83.6698 45.7049 84.0991 45.6023C84.5285 45.4903 84.9905 45.4343 85.4851 45.4343C86.3531 45.4343 86.7871 45.6956 86.7871 46.2183C86.7871 46.3489 86.7685 46.4703 86.7311 46.5823C86.6938 46.6849 86.6471 46.7783 86.5911 46.8623C86.4978 46.8436 86.3811 46.8249 86.2411 46.8063C86.1011 46.7876 85.9565 46.7783 85.8071 46.7783C85.4618 46.7783 85.1398 46.8156 84.8411 46.8903C84.5425 46.9649 84.2905 47.0629 84.0851 47.1843V49.1163ZM84.0851 48.6403V52.2103C84.0105 52.2383 83.9031 52.2616 83.7631 52.2803C83.6325 52.3083 83.4878 52.3223 83.3291 52.3223C83.0118 52.3223 82.7785 52.2663 82.6291 52.1543C82.4798 52.0423 82.4051 51.8416 82.4051 51.5523V48.5423L84.0851 48.6403ZM93.7413 47.4083C94.6093 48.2856 95.37 49.0696 96.0233 49.7603C96.6767 50.4509 97.218 51.0063 97.6473 51.4263C97.638 51.7156 97.54 51.9443 97.3533 52.1123C97.176 52.2803 96.9613 52.3643 96.7093 52.3643C96.448 52.3643 96.2287 52.2943 96.0513 52.1543C95.874 52.0143 95.7013 51.8556 95.5333 51.6783L91.9633 47.8003L93.7413 47.4083ZM91.7673 48.3603L96.0793 43.6703C96.4993 43.6796 96.8027 43.7683 96.9893 43.9363C97.1853 44.1043 97.2833 44.3003 97.2833 44.5243C97.2833 44.7016 97.2367 44.8696 97.1433 45.0283C97.0593 45.1776 96.9193 45.3456 96.7233 45.5323L93.8253 48.4023L91.7673 48.3603ZM92.6493 46.6243V52.2243C92.5747 52.2429 92.4627 52.2663 92.3133 52.2943C92.164 52.3223 92.01 52.3363 91.8513 52.3363C91.5153 52.3363 91.2727 52.2756 91.1233 52.1543C90.9833 52.0236 90.9133 51.8136 90.9133 51.5243V46.6243H92.6493ZM90.9133 48.5983V43.7403C90.988 43.7216 91.1 43.6983 91.2493 43.6703C91.408 43.6423 91.5667 43.6283 91.7253 43.6283C92.0427 43.6283 92.276 43.6889 92.4253 43.8103C92.5747 43.9223 92.6493 44.1323 92.6493 44.4403V48.5983H90.9133ZM99.333 48.6123L103.113 48.0523C103.085 47.6883 102.945 47.3756 102.693 47.1143C102.441 46.8436 102.082 46.7083 101.615 46.7083C101.13 46.7083 100.724 46.8763 100.397 47.2123C100.08 47.5483 99.9163 48.0289 99.907 48.6543L99.949 49.3543C100.033 49.9609 100.266 50.4089 100.649 50.6983C101.032 50.9876 101.517 51.1323 102.105 51.1323C102.497 51.1323 102.856 51.0763 103.183 50.9643C103.519 50.8429 103.79 50.7123 103.995 50.5723C104.116 50.6469 104.214 50.7496 104.289 50.8803C104.373 51.0016 104.415 51.1369 104.415 51.2863C104.415 51.5196 104.308 51.7249 104.093 51.9023C103.878 52.0703 103.589 52.2009 103.225 52.2943C102.87 52.3876 102.46 52.4343 101.993 52.4343C101.274 52.4343 100.635 52.3036 100.075 52.0423C99.5243 51.7716 99.095 51.3703 98.787 50.8383C98.479 50.3063 98.325 49.6483 98.325 48.8643C98.325 48.2949 98.409 47.7956 98.577 47.3663C98.7543 46.9369 98.9923 46.5776 99.291 46.2883C99.599 45.9989 99.949 45.7843 100.341 45.6443C100.742 45.4949 101.167 45.4203 101.615 45.4203C102.222 45.4203 102.754 45.5463 103.211 45.7983C103.678 46.0503 104.042 46.3956 104.303 46.8343C104.564 47.2729 104.695 47.7723 104.695 48.3323C104.695 48.5936 104.63 48.7896 104.499 48.9203C104.368 49.0416 104.186 49.1163 103.953 49.1443L99.403 49.8023L99.333 48.6123Z" fill="#3A3A3A"/>
</g>
<defs>
<filter id="filter0_b_543_615" x="-32" y="-32" width="236.611" height="145.735" filterUnits="userSpaceOnUse" color-interpolation-filters="sRGB">
<feFlood flood-opacity="0" result="BackgroundImageFix"/>
<feGaussianBlur in="BackgroundImageFix" stdDeviation="16"/>
<feComposite in2="SourceAlpha" operator="in" result="effect1_backgroundBlur_543_615"/>
<feBlend mode="normal" in="SourceGraphic" in2="effect1_backgroundBlur_543_615" result="shape"/>
</filter>
<filter id="filter1_b_543_615" x="-3" y="-3" width="178.611" height="87.7354" filterUnits="userSpaceOnUse" color-interpolation-filters="sRGB">
<feFlood flood-opacity="0" result="BackgroundImageFix"/>
<feGaussianBlur in="BackgroundImageFix" stdDeviation="1.5"/>
<feComposite in2="SourceAlpha" operator="in" result="effect1_backgroundBlur_543_615"/>
<feBlend mode="normal" in="SourceGraphic" in2="effect1_backgroundBlur_543_615" result="shape"/>
</filter>
</defs>
</svg>
