<svg width="558" height="523" viewBox="0 0 558 523" fill="none" xmlns="http://www.w3.org/2000/svg">
<path d="M565.912 224.583C565.951 225.923 565.977 227.268 565.99 228.618L564.99 228.628C564.997 229.3 565 229.973 565 230.648C565 231.311 564.997 231.975 564.991 232.638L565.99 232.648C565.978 233.981 565.953 235.314 565.915 236.647L564.915 236.619C564.878 237.946 564.827 239.273 564.765 240.6L565.764 240.647C565.701 241.98 565.626 243.313 565.539 244.646L564.541 244.581C564.454 245.904 564.356 247.226 564.245 248.549L565.241 248.632C565.13 249.961 565.007 251.289 564.871 252.617L563.876 252.515C563.742 253.837 563.595 255.159 563.437 256.48L564.43 256.599C564.271 257.922 564.101 259.244 563.919 260.565L562.928 260.429C562.747 261.743 562.555 263.056 562.351 264.368L563.339 264.522C563.134 265.84 562.917 267.158 562.69 268.475L561.704 268.304C561.478 269.613 561.24 270.921 560.992 272.228L561.974 272.415C561.725 273.722 561.465 275.029 561.194 276.334L560.215 276.131C559.945 277.43 559.664 278.729 559.373 280.027L560.348 280.246C560.055 281.549 559.751 282.851 559.437 284.152L558.465 283.917C558.153 285.205 557.831 286.491 557.498 287.777L558.467 288.027C558.133 289.317 557.789 290.604 557.434 291.891L556.47 291.625C556.117 292.907 555.753 294.187 555.379 295.465L556.339 295.746C555.964 297.025 555.58 298.304 555.185 299.58L554.23 299.285C553.838 300.551 553.436 301.815 553.025 303.078L553.976 303.388C553.563 304.655 553.14 305.921 552.707 307.185L551.761 306.861C551.329 308.12 550.888 309.378 550.437 310.633L551.378 310.971C550.929 312.222 550.47 313.472 550.001 314.719L549.065 314.368C548.599 315.61 548.123 316.85 547.637 318.088L548.568 318.453C548.081 319.696 547.585 320.936 547.079 322.174L546.153 321.796C545.651 323.026 545.139 324.253 544.618 325.479L545.538 325.87C545.018 327.094 544.488 328.316 543.95 329.536L543.035 329.132C542.499 330.347 541.953 331.56 541.399 332.771L542.308 333.187C541.752 334.402 541.187 335.614 540.613 336.823L539.71 336.394C539.141 337.592 538.564 338.787 537.979 339.98L538.877 340.421C538.29 341.616 537.694 342.809 537.091 343.999L536.199 343.546C535.597 344.732 534.987 345.916 534.368 347.096L535.254 347.56C534.635 348.742 534.007 349.92 533.372 351.096L532.492 350.621C531.861 351.787 531.222 352.951 530.575 354.112L531.449 354.598C530.8 355.763 530.143 356.924 529.478 358.082L528.611 357.584C527.948 358.739 527.277 359.89 526.599 361.038L527.46 361.547C526.782 362.693 526.097 363.836 525.404 364.976L524.55 364.457C523.86 365.591 523.163 366.722 522.458 367.85L523.306 368.38C522.599 369.511 521.884 370.639 521.162 371.763L520.321 371.223C519.602 372.343 518.875 373.459 518.141 374.572L518.976 375.122C518.243 376.234 517.503 377.341 516.756 378.445L515.928 377.884C515.183 378.985 514.431 380.081 513.672 381.174L514.493 381.745C513.732 382.841 512.963 383.933 512.188 385.022L511.373 384.442C510.602 385.524 509.824 386.603 509.039 387.678L509.846 388.268C509.061 389.344 508.268 390.416 507.469 391.483L506.669 390.884C505.872 391.949 505.068 393.009 504.258 394.065L505.052 394.674C504.239 395.733 503.42 396.789 502.595 397.84L501.808 397.222C500.988 398.267 500.161 399.307 499.327 400.343L500.106 400.97C499.271 402.009 498.429 403.043 497.581 404.073L496.809 403.437C495.963 404.464 495.111 405.487 494.253 406.505L495.018 407.149C494.158 408.17 493.292 409.185 492.419 410.197L491.662 409.543C490.794 410.55 489.92 411.551 489.04 412.548L489.79 413.21C488.907 414.21 488.019 415.205 487.124 416.195L486.382 415.525C485.491 416.513 484.593 417.495 483.689 418.473L484.424 419.152C483.519 420.132 482.608 421.107 481.691 422.076L480.965 421.39C480.051 422.356 479.132 423.318 478.208 424.274L478.927 424.969C478 425.928 477.067 426.882 476.129 427.831L475.418 427.128C474.482 428.075 473.542 429.016 472.595 429.952L473.298 430.663C472.35 431.601 471.396 432.533 470.437 433.461L469.742 432.742C468.786 433.667 467.825 434.586 466.858 435.5L467.545 436.227C466.576 437.143 465.601 438.054 464.621 438.96L463.942 438.226C462.965 439.129 461.983 440.027 460.996 440.919L461.667 441.661C460.677 442.555 459.682 443.444 458.682 444.328L458.02 443.579C457.023 444.459 456.021 445.335 455.014 446.204L455.668 446.961C454.658 447.833 453.644 448.699 452.625 449.559L451.98 448.795C450.963 449.654 449.941 450.506 448.915 451.353L449.551 452.124C448.522 452.973 447.488 453.817 446.449 454.654L445.821 453.875C444.785 454.71 443.745 455.539 442.7 456.362L443.319 457.148C442.271 457.973 441.218 458.791 440.162 459.604L439.552 458.811C438.497 459.623 437.437 460.428 436.373 461.227L436.973 462.027C435.906 462.829 434.834 463.624 433.758 464.412L433.167 463.606C432.094 464.392 431.017 465.172 429.936 465.946L430.517 466.759C429.432 467.535 428.343 468.305 427.25 469.067L426.678 468.247C425.586 469.01 424.489 469.765 423.389 470.514L423.952 471.341C422.848 472.092 421.741 472.836 420.63 473.573L420.077 472.74C418.969 473.475 417.857 474.203 416.741 474.925L417.284 475.765C416.163 476.489 415.038 477.207 413.91 477.918L413.377 477.072C412.25 477.782 411.119 478.484 409.985 479.18L410.508 480.032C409.37 480.73 408.229 481.42 407.084 482.103L406.572 481.244C405.43 481.925 404.286 482.599 403.137 483.265L403.639 484.13C402.483 484.801 401.324 485.464 400.161 486.12L399.669 485.249C398.51 485.903 397.347 486.55 396.18 487.189L396.661 488.066C395.491 488.706 394.318 489.339 393.141 489.965L392.672 489.082C391.498 489.706 390.32 490.323 389.14 490.931L389.598 491.82C388.41 492.433 387.218 493.037 386.024 493.634L385.577 492.739C384.387 493.334 383.193 493.921 381.997 494.499L382.432 495.4C381.232 495.98 380.029 496.552 378.823 497.117L378.4 496.211C377.193 496.775 375.984 497.331 374.772 497.879L375.184 498.79C373.966 499.34 372.746 499.882 371.523 500.415L371.123 499.499C369.904 500.03 368.683 500.553 367.459 501.068L367.846 501.99C366.617 502.506 365.386 503.014 364.152 503.513L363.777 502.586C362.541 503.086 361.303 503.577 360.062 504.059L360.424 504.991C359.18 505.475 357.933 505.95 356.683 506.416L356.334 505.479C355.089 505.943 353.841 506.399 352.592 506.845L352.928 507.787C351.671 508.236 350.411 508.676 349.149 509.106L348.826 508.16C347.566 508.59 346.303 509.011 345.039 509.422L345.348 510.373C344.079 510.786 342.808 511.19 341.535 511.584L341.239 510.628C339.971 511.021 338.701 511.404 337.429 511.777L337.711 512.737C336.427 513.114 335.142 513.481 333.855 513.838L333.588 512.874C332.305 513.23 331.022 513.576 329.736 513.912L329.989 514.88C328.699 515.217 327.407 515.545 326.114 515.862L325.875 514.891C324.584 515.208 323.291 515.515 321.997 515.811L322.22 516.786C320.918 517.085 319.614 517.373 318.308 517.651L318.1 516.673C316.8 516.95 315.498 517.216 314.196 517.472L314.389 518.453C313.081 518.711 311.772 518.957 310.462 519.193L310.284 518.209C308.974 518.445 307.663 518.67 306.351 518.885L306.512 519.872C305.194 520.088 303.876 520.292 302.556 520.486L302.411 519.497C301.097 519.69 299.781 519.872 298.466 520.043L298.595 521.035C297.272 521.207 295.947 521.368 294.623 521.518L294.51 520.525C293.189 520.674 291.867 520.813 290.544 520.94L290.64 521.935C289.312 522.063 287.983 522.18 286.654 522.285L286.575 521.288C285.251 521.392 283.927 521.486 282.603 521.568L282.665 522.566C281.332 522.648 279.999 522.719 278.666 522.778L278.622 521.779C277.295 521.837 275.967 521.885 274.639 521.92L274.666 522.92C273.333 522.955 271.999 522.979 270.665 522.991L270.657 521.991C269.993 521.997 269.329 522 268.665 522C267.996 522 267.328 521.998 266.66 521.993L266.653 522.993C265.313 522.983 263.975 522.964 262.639 522.936L262.661 521.936C261.33 521.907 260.002 521.869 258.676 521.822L258.64 522.821C257.309 522.774 255.98 522.717 254.654 522.651L254.704 521.652C253.369 521.585 252.036 521.509 250.706 521.423L250.642 522.421C249.307 522.335 247.975 522.239 246.646 522.134L246.725 521.137C245.4 521.033 244.078 520.919 242.759 520.796L242.666 521.791C241.335 521.667 240.005 521.533 238.679 521.39L238.787 520.395C237.461 520.252 236.137 520.099 234.817 519.937L234.695 520.93C233.37 520.767 232.048 520.595 230.729 520.413L230.865 519.423C229.548 519.242 228.234 519.051 226.924 518.851L226.773 519.84C225.449 519.638 224.127 519.427 222.809 519.206L222.975 518.22C221.661 518 220.352 517.771 219.045 517.533L218.866 518.516C217.554 518.277 216.247 518.029 214.942 517.771L215.136 516.79C213.827 516.531 212.521 516.264 211.219 515.986L211.011 516.965C209.703 516.686 208.399 516.399 207.098 516.102L207.321 515.127C206.025 514.831 204.733 514.526 203.444 514.212L203.207 515.184C201.909 514.867 200.614 514.542 199.323 514.207L199.574 513.239C198.284 512.905 196.998 512.561 195.715 512.208L195.45 513.172C194.163 512.818 192.879 512.455 191.6 512.083L191.879 511.123C190.603 510.751 189.33 510.371 188.061 509.981L187.768 510.937C186.489 510.545 185.213 510.143 183.942 509.732L184.25 508.781C182.984 508.371 181.721 507.953 180.464 507.526L180.142 508.473C178.88 508.044 177.621 507.607 176.368 507.16L176.703 506.218C175.447 505.771 174.195 505.315 172.948 504.85L172.598 505.787C171.346 505.32 170.099 504.844 168.856 504.36L169.219 503.428C167.98 502.946 166.747 502.454 165.517 501.954L165.141 502.881C163.902 502.377 162.669 501.864 161.44 501.343L161.831 500.423C160.605 499.903 159.383 499.374 158.167 498.837L157.763 499.752C156.542 499.212 155.326 498.665 154.115 498.108L154.533 497.199C153.324 496.644 152.12 496.08 150.921 495.507L150.49 496.41C149.283 495.834 148.082 495.249 146.886 494.656L147.33 493.76C146.139 493.169 144.952 492.57 143.771 491.962L143.313 492.852C142.126 492.241 140.945 491.622 139.769 490.995L140.239 490.113C139.064 489.486 137.894 488.851 136.729 488.208L136.246 489.083C135.077 488.437 133.914 487.783 132.756 487.121L133.252 486.253C132.099 485.593 130.95 484.925 129.808 484.249L129.299 485.11C128.148 484.429 127.003 483.74 125.864 483.043L126.386 482.19C125.251 481.495 124.122 480.793 122.998 480.082L122.464 480.927C121.336 480.214 120.214 479.493 119.098 478.764L119.645 477.927C118.531 477.198 117.422 476.462 116.32 475.718L115.761 476.547C114.653 475.8 113.552 475.045 112.457 474.282L113.029 473.461C111.938 472.701 110.853 471.933 109.775 471.158L109.191 471.97C108.106 471.19 107.028 470.403 105.957 469.608L106.552 468.804C105.484 468.012 104.421 467.211 103.365 466.403L102.757 467.197C101.697 466.386 100.644 465.567 99.5965 464.741L100.216 463.956C99.1717 463.132 98.1341 462.301 97.103 461.462L96.472 462.238C95.4358 461.395 94.4062 460.544 93.3833 459.686L94.0259 458.92C93.0069 458.065 91.9945 457.203 90.9889 456.334L90.335 457.091C89.3252 456.218 88.3223 455.338 87.3263 454.451L87.9914 453.704C86.9978 452.819 86.0111 451.926 85.0313 451.027L84.355 451.763C83.3716 450.861 82.3951 449.951 81.4258 449.034L82.113 448.307C81.1472 447.393 80.1885 446.473 79.2369 445.545L78.5389 446.261C77.5826 445.329 76.6334 444.389 75.6916 443.443L76.4003 442.738C75.462 441.795 74.5309 440.846 73.6072 439.889L72.8879 440.584C71.9607 439.624 71.0409 438.657 70.1285 437.684L70.8581 437C69.9485 436.03 69.0463 435.052 68.1516 434.068L67.4118 434.741C66.5136 433.753 65.623 432.759 64.7401 431.758L65.49 431.097C64.6104 430.099 63.7384 429.096 62.8741 428.086L62.1143 428.736C61.2465 427.721 60.3864 426.7 59.5341 425.673L60.3037 425.035C59.4546 424.011 58.6133 422.981 57.7798 421.945L57.0006 422.572C56.164 421.532 55.3353 420.486 54.5146 419.433L55.3032 418.818C54.4857 417.77 53.6761 416.715 52.8746 415.654L52.0767 416.257C51.2721 415.192 50.4757 414.121 49.6874 413.043L50.4944 412.453C49.7091 411.38 48.932 410.301 48.1631 409.216L47.3472 409.794C46.5755 408.705 45.8121 407.61 45.057 406.509L45.8817 405.943C45.1298 404.847 44.3862 403.745 43.651 402.637L42.8178 403.19C42.0798 402.078 41.3502 400.96 40.6292 399.836L41.4708 399.296C40.7527 398.177 40.0431 397.052 39.342 395.922L38.4922 396.449C37.7891 395.315 37.0945 394.176 36.4087 393.031L37.2665 392.517C36.5833 391.377 35.9088 390.231 35.243 389.079L34.3773 389.58C33.7089 388.424 33.0493 387.263 32.3985 386.096L33.2718 385.609C32.6247 384.449 31.9864 383.284 31.3569 382.113L30.4761 382.587C29.8442 381.411 29.2212 380.231 28.6072 379.045L29.4952 378.586C28.8836 377.405 28.281 376.218 27.6874 375.027L26.7923 375.473C26.1976 374.28 25.6119 373.081 25.0354 371.878L25.9373 371.446C25.3632 370.247 24.7983 369.044 24.2425 367.836L23.334 368.254C22.7761 367.041 22.2273 365.823 21.6879 364.6L22.6028 364.197C22.0666 362.981 21.5396 361.761 21.0219 360.536L20.1008 360.926C19.5816 359.698 19.0718 358.465 18.5714 357.227L19.4985 356.852C19.0001 355.62 18.511 354.382 18.0314 353.141L17.0986 353.501C16.618 352.256 16.1468 351.007 15.6852 349.754L16.6236 349.408C16.1648 348.163 15.7155 346.913 15.2758 345.658L14.3321 345.989C13.8906 344.73 13.4587 343.466 13.0365 342.198L13.9853 341.882C13.5652 340.621 13.1548 339.355 12.7541 338.085L11.8004 338.386C11.3996 337.116 11.0085 335.842 10.6271 334.563L11.5853 334.277C11.2054 333.004 10.8353 331.727 10.4749 330.446L9.51225 330.717C9.15046 329.43 8.7985 328.14 8.45646 326.846L9.42326 326.591C9.08456 325.309 8.75562 324.024 8.43653 322.735L7.46583 322.975C7.14548 321.681 6.83502 320.383 6.53453 319.081L7.5089 318.857C7.20959 317.56 6.92021 316.26 6.64085 314.956L5.66305 315.166C5.38404 313.864 5.11497 312.558 4.85594 311.249L5.83691 311.055C5.57934 309.753 5.33171 308.448 5.09413 307.14L4.11022 307.318C3.87169 306.005 3.64324 304.688 3.42495 303.367L4.41156 303.204C4.19496 301.894 3.98841 300.581 3.79197 299.264L2.80292 299.412C2.60653 298.096 2.4202 296.776 2.24403 295.454L3.23528 295.322C3.0598 294.004 2.89443 292.684 2.73925 291.36L1.74605 291.477C1.59054 290.151 1.44521 288.821 1.31016 287.489L2.30506 287.388C2.17155 286.071 2.04811 284.751 1.93483 283.428L0.938473 283.513C0.824748 282.185 0.721219 280.854 0.627963 279.521L1.62553 279.451C1.53263 278.123 1.44997 276.791 1.37762 275.458L0.379089 275.512C0.30711 274.185 0.245294 272.855 0.193715 271.523L1.19297 271.484C1.14166 270.159 1.10053 268.832 1.06963 267.502L0.0699042 267.525C0.0388912 266.19 0.0181603 264.852 0.00778565 263.512L1.00776 263.504C1.00259 262.837 1 262.169 1 261.5C1 260.831 1.00259 260.163 1.00776 259.496L0.00778695 259.488C0.0181625 258.148 0.0388943 256.81 0.0699082 255.475L1.06964 255.498C1.10053 254.168 1.14167 252.841 1.19297 251.515L0.193721 251.477C0.2453 250.145 0.307117 248.815 0.379097 247.488L1.37763 247.542C1.44998 246.208 1.53264 244.877 1.62554 243.549L0.627972 243.479C0.72123 242.145 0.824759 240.815 0.938486 239.487L1.93484 239.572C2.04812 238.249 2.17156 236.929 2.30508 235.612L1.31018 235.511C1.44523 234.179 1.59055 232.849 1.74607 231.523L2.73927 231.639C2.89444 230.316 3.05981 228.996 3.23529 227.678L2.24405 227.546C2.42022 226.224 2.60654 224.904 2.80294 223.588L3.79199 223.736C3.98843 222.419 4.19498 221.106 4.41157 219.796L3.42497 219.632C3.64326 218.312 3.87171 216.995 4.11023 215.681L5.09415 215.86C5.33173 214.552 5.57936 213.246 5.83693 211.945L4.85595 211.751C5.11499 210.442 5.38406 209.136 5.66307 207.834L6.64087 208.044C6.92023 206.74 7.20961 205.44 7.50892 204.143L6.53455 203.918C6.83504 202.617 7.1455 201.319 7.46585 200.025L8.43656 200.265C8.75564 198.976 9.08458 197.691 9.42329 196.409L8.45648 196.154C8.79852 194.86 9.15047 193.57 9.51227 192.283L10.4749 192.554C10.8353 191.273 11.2055 189.996 11.5853 188.722L10.6271 188.437C11.0085 187.158 11.3996 185.884 11.8004 184.614L12.7541 184.915C13.1548 183.645 13.5653 182.379 13.9853 181.118L13.0366 180.802C13.4587 179.534 13.8906 178.27 14.3321 177.011L15.2758 177.342C15.7155 176.087 16.1648 174.837 16.6236 173.592L15.6852 173.246C16.1468 171.993 16.618 170.744 17.0986 169.499L18.0315 169.859C18.511 168.618 19.0001 167.38 19.4985 166.148L18.5714 165.773C19.0718 164.535 19.5816 163.302 20.1008 162.074L21.0219 162.463C21.5396 161.239 22.0666 160.019 22.6028 158.803L21.6879 158.4C22.2273 157.177 22.7761 155.959 23.334 154.746L24.2425 155.164C24.7983 153.956 25.3632 152.753 25.9373 151.554L25.0354 151.122C25.6119 149.919 26.1976 148.72 26.7923 147.527L27.6874 147.973C28.281 146.782 28.8836 145.595 29.4952 144.414L28.6072 143.955C29.2212 142.769 29.8442 141.589 30.4761 140.413L31.3569 140.887C31.9863 139.716 32.6247 138.551 33.2718 137.391L32.3985 136.904C33.0492 135.737 33.7089 134.576 34.3772 133.42L35.2429 133.921C35.9087 132.769 36.5833 131.623 37.2665 130.483L36.4086 129.969C37.0945 128.824 37.789 127.685 38.4921 126.551L39.342 127.078C40.043 125.948 40.7526 124.823 41.4708 123.704L40.6291 123.164C41.3502 122.04 42.0797 120.922 42.8177 119.81L43.651 120.363C44.3861 119.255 45.1297 118.153 45.8816 117.057L45.0569 116.491C45.812 115.39 46.5754 114.295 47.3471 113.206L48.163 113.785C48.9319 112.7 49.709 111.62 50.4943 110.547L49.6873 109.957C50.4756 108.88 51.272 107.809 52.0766 106.744L52.8745 107.346C53.676 106.285 54.4856 105.231 55.3031 104.182L54.5145 103.567C55.3352 102.515 56.1639 101.468 57.0005 100.428L57.7797 101.055C58.6131 100.019 59.4545 98.9889 60.3036 97.9654L59.534 97.3269C60.3863 96.2997 61.2463 95.2789 62.1142 94.2646L62.874 94.9147C63.7383 93.9045 64.6103 92.9007 65.4899 91.9036L64.74 91.2421C65.6229 90.2411 66.5135 89.2467 67.4116 88.259L68.1515 88.9318C69.0462 87.9479 69.9484 86.9706 70.858 86.0001L70.1284 85.3162C71.0407 84.3427 71.9606 83.376 72.8878 82.4161L73.607 83.1108C74.5308 82.1545 75.4618 81.205 76.4002 80.2623L75.6914 79.5569C76.6333 78.6107 77.5824 77.6714 78.5387 76.7391L79.2368 77.4551C80.1884 76.5275 81.1471 75.6067 82.1129 74.693L81.4257 73.9666C82.395 73.0495 83.3715 72.1395 84.3549 71.2367L85.0312 71.9733C86.0109 71.0738 86.9977 70.1815 87.9913 69.2963L87.3261 68.5496C88.3222 67.6623 89.3251 66.7822 90.3348 65.9093L90.9888 66.6659C91.9944 65.7967 93.0067 64.9347 94.0258 64.0801L93.3832 63.3139C94.406 62.456 95.4356 61.6056 96.4718 60.7626L97.1029 61.5383C98.1339 60.6995 99.1716 59.8681 100.216 59.0442L99.5963 58.2592C100.643 57.433 101.697 56.6142 102.757 55.8031L103.365 56.5973C104.421 55.7892 105.483 54.9886 106.552 54.1957L105.956 53.3926C107.028 52.5975 108.106 51.8101 109.191 51.0304L109.774 51.8423C110.853 51.0668 111.938 50.2989 113.029 49.5388L112.457 48.7183C113.552 47.9554 114.653 47.2003 115.76 46.4531L116.32 47.282C117.422 46.538 118.531 45.8018 119.645 45.0736L119.098 44.2365C120.214 43.5073 121.336 42.786 122.463 42.0728L122.998 42.9179C124.121 42.2073 125.251 41.5047 126.386 40.8101L125.864 39.9572C127.003 39.26 128.148 38.571 129.299 37.8901L129.808 38.7508C130.95 38.0747 132.098 37.4067 133.252 36.747L132.756 35.8789C133.913 35.2167 135.077 34.5627 136.246 33.917L136.729 34.7923C137.894 34.149 139.064 33.5139 140.239 32.8872L139.769 32.0048C140.945 31.3776 142.126 30.7588 143.313 30.1483L143.771 31.0376C144.952 30.43 146.138 29.8307 147.33 29.2398L146.886 28.3439C148.082 27.7509 149.283 27.1663 150.49 26.5903L150.921 27.4927C152.12 26.9201 153.324 26.3561 154.533 25.8006L154.115 24.8919C155.326 24.3355 156.542 23.7876 157.763 23.2484L158.167 24.1631C159.383 23.6259 160.605 23.0973 161.831 22.5773L161.44 21.6567C162.669 21.1356 163.902 20.6231 165.141 20.1194L165.517 21.0457C166.747 20.5457 167.98 20.0543 169.219 19.5717L168.856 18.64C170.099 18.1556 171.346 17.68 172.598 17.2132L172.948 18.1502C174.195 17.6853 175.447 17.2291 176.703 16.7818L176.368 15.8398C177.621 15.3934 178.88 14.9558 180.142 14.5271L180.464 15.474C181.721 15.0469 182.984 14.6287 184.25 14.2195L183.942 13.2679C185.213 12.8572 186.489 12.4554 187.768 12.0627L188.061 13.0187C189.33 12.6293 190.603 12.2488 191.879 11.8773L191.6 10.9172C192.879 10.545 194.163 10.1818 195.45 9.82773L195.715 10.7919C196.998 10.4392 198.284 10.0955 199.574 9.76093L199.323 8.79294C200.614 8.4582 201.909 8.13259 203.208 7.81617L203.444 8.78774C204.733 8.47376 206.025 8.16887 207.321 7.87314L207.099 6.8982C208.399 6.60139 209.703 6.31377 211.011 6.03542L211.219 7.01352C212.521 6.73643 213.827 6.46856 215.136 6.20999L214.942 5.22895C216.247 4.97127 217.555 4.72279 218.866 4.48358L219.045 5.46734C220.352 5.22901 221.662 4.99991 222.975 4.78012L222.81 3.79384C224.127 3.57324 225.449 3.362 226.773 3.16016L226.924 4.14875C228.234 3.94899 229.548 3.75848 230.865 3.57731L230.729 2.58664C232.048 2.4052 233.37 2.23308 234.695 2.07036L234.817 3.0629C236.137 2.90077 237.461 2.74799 238.787 2.60465L238.679 1.61044C240.006 1.46709 241.335 1.33314 242.667 1.20866L242.76 2.20432C244.079 2.08104 245.4 1.96709 246.725 1.86251L246.646 0.865615C247.975 0.760663 249.307 0.66513 250.642 0.579083L250.706 1.57701C252.036 1.49127 253.369 1.41499 254.704 1.34822L254.654 0.349473C255.98 0.283154 257.309 0.226197 258.64 0.178667L258.676 1.17803C260.002 1.13069 261.33 1.09274 262.661 1.06424L262.639 0.0644697C263.975 0.0358663 265.313 0.0167475 266.653 0.00717986L266.66 1.00715C267.328 1.00239 267.996 1 268.665 1C269.333 1 270.001 1.00175 270.668 1.00525L270.674 0.00526372C272.013 0.0122809 273.352 0.0263108 274.691 0.0473328L274.675 1.04721C276.011 1.06818 277.346 1.09612 278.681 1.13101L278.707 0.131354C280.046 0.16634 281.384 0.208297 282.723 0.257205L282.686 1.25654C284.021 1.30534 285.356 1.36108 286.691 1.42374L286.737 0.424841C288.075 0.487662 289.413 0.55742 290.75 0.634092L290.692 1.63245C292.026 1.70893 293.359 1.7923 294.691 1.88255L294.758 0.884838C296.095 0.97538 297.431 1.07283 298.766 1.17716L298.688 2.17412C300.02 2.27823 301.352 2.38921 302.682 2.50704L302.771 1.51094C304.105 1.62908 305.438 1.75408 306.77 1.88594L306.671 2.88108C308 3.01262 309.328 3.151 310.655 3.29619L310.764 2.30212C312.096 2.44793 313.428 2.60058 314.758 2.76007L314.639 3.75296C315.966 3.91204 317.291 4.07793 318.615 4.25062L318.745 3.25901C320.072 3.43214 321.398 3.61209 322.723 3.79882L322.584 4.78903C323.907 4.9756 325.229 5.16897 326.55 5.36911L326.7 4.3804C328.025 4.58124 329.349 4.78888 330.671 5.00331L330.511 5.9904C331.829 6.20427 333.146 6.4249 334.461 6.65228L334.631 5.6669C335.951 5.89504 337.269 6.12996 338.584 6.37162L338.404 7.35517C339.719 7.59683 341.033 7.84525 342.345 8.10043L342.536 7.11883C343.851 7.37467 345.164 7.63727 346.475 7.90662L346.274 8.88616C347.582 9.15481 348.887 9.43018 350.19 9.71225L350.402 8.73488C351.713 9.01861 353.021 9.30911 354.328 9.60635L354.106 10.5814C355.41 10.8781 356.711 11.1816 358.01 11.4917L358.242 10.5191C359.545 10.83 360.844 11.1478 362.142 11.4722L361.899 12.4423C363.195 12.7665 364.489 13.0973 365.78 13.4349L366.033 12.4674C367.331 12.8069 368.626 13.1532 369.919 13.5061L369.655 14.4708C370.944 14.8228 372.23 15.1816 373.513 15.547L373.787 14.5852C375.074 14.9516 376.358 15.3248 377.638 15.7046L377.354 16.6633C378.638 17.0441 379.918 17.4317 381.196 17.826L381.491 16.8704C382.772 17.2659 384.05 17.668 385.324 18.0769L385.019 19.0291C386.29 19.4368 387.557 19.8513 388.822 20.2724L389.138 19.3237C390.41 19.7475 391.679 20.1781 392.944 20.6154L392.617 21.5606C393.882 21.9977 395.143 22.4416 396.4 22.8923L396.738 21.9509C397.998 22.4028 399.255 22.8614 400.509 23.3268L400.161 24.2642C401.412 24.729 402.66 25.2004 403.903 25.6786L404.262 24.7452C405.516 25.2272 406.766 25.716 408.011 26.2116L407.641 27.1407C408.883 27.6349 410.121 28.1357 411.354 28.6433L411.734 27.7185C412.971 28.2276 414.204 28.7434 415.432 29.2659L415.041 30.1861C416.273 30.7105 417.501 31.2416 418.725 31.7795L419.127 30.8641C420.355 31.404 421.579 31.9507 422.797 32.5042L422.384 33.4147C423.599 33.9665 424.809 34.5251 426.014 35.0903L426.439 34.1849C427.653 34.7545 428.863 35.3309 430.067 35.914L429.632 36.8141C430.836 37.3973 432.036 37.9873 433.23 38.5841L433.677 37.6896C434.875 38.2883 436.068 38.8937 437.256 39.506L436.797 40.3948C437.984 41.0066 439.165 41.6251 440.341 42.2504L440.811 41.3675C441.997 41.9984 443.178 42.6362 444.353 43.2808L443.872 44.1576C445.043 44.8001 446.209 45.4495 447.369 46.1056L447.861 45.2352C449.025 45.8937 450.183 46.5589 451.335 47.231L450.831 48.0948C451.989 48.7701 453.141 49.4523 454.286 50.1413L454.802 49.2844C455.951 49.9757 457.094 50.674 458.231 51.3791L457.704 52.2289C458.837 52.9315 459.963 53.641 461.083 54.3573L461.622 53.5148C462.754 54.2385 463.879 54.9691 464.997 55.7067L464.447 56.5415C465.563 57.2777 466.673 58.0208 467.776 58.7707L468.338 57.9437C469.445 58.6963 470.545 59.4558 471.638 60.2222L471.064 61.041C472.159 61.8084 473.246 62.5828 474.326 63.364L474.912 62.5537C476 63.3405 477.081 64.1343 478.155 64.935L477.557 65.7365C478.626 66.5343 479.688 67.3389 480.743 68.1504L481.352 67.3579C482.414 68.1752 483.469 68.9995 484.516 69.8307L483.894 70.6139C484.942 71.446 485.982 72.285 487.014 73.131L487.648 72.3576C488.684 73.2068 489.712 74.063 490.732 74.9262L490.087 75.6896C491.105 76.5511 492.115 77.4196 493.117 78.2949L493.775 77.5419C494.786 78.4259 495.789 79.3169 496.784 80.2149L496.114 80.9572C497.105 81.8515 498.087 82.7528 499.061 83.661L499.743 82.9298C500.721 83.8426 501.691 84.7624 502.652 85.6892L501.958 86.409C502.921 87.3377 503.875 88.2734 504.82 89.216L505.526 88.508C506.475 89.4546 507.415 90.4083 508.346 91.3689L507.628 92.0647C508.554 93.0214 509.472 93.9849 510.38 94.9554L511.11 94.2721C512.028 95.2528 512.936 96.2406 513.835 97.2353L513.092 97.9056C513.987 98.896 514.872 99.8933 515.747 100.898L516.501 100.241C517.38 101.249 518.249 102.265 519.108 103.288L518.342 103.931C519.202 104.954 520.051 105.984 520.89 107.02L521.667 106.391C522.511 107.433 523.344 108.482 524.166 109.538L523.377 110.152C524.196 111.203 525.004 112.261 525.802 113.326L526.602 112.726C527.406 113.799 528.2 114.879 528.982 115.966L528.171 116.55C528.95 117.633 529.718 118.722 530.476 119.818L531.298 119.249C532.06 120.351 532.81 121.459 533.549 122.574L532.715 123.126C533.452 124.238 534.177 125.356 534.891 126.48L535.736 125.945C536.454 127.075 537.16 128.213 537.855 129.357L537 129.877C537.692 131.015 538.372 132.161 539.041 133.313L539.906 132.812C540.578 133.969 541.238 135.134 541.886 136.305L541.011 136.79C541.656 137.955 542.289 139.127 542.911 140.306L543.795 139.839C544.42 141.024 545.032 142.216 545.633 143.414L544.739 143.862C545.335 145.052 545.919 146.248 546.491 147.451L547.394 147.021C547.969 148.229 548.531 149.444 549.081 150.665L548.169 151.076C548.716 152.291 549.251 153.513 549.773 154.741L550.694 154.349C551.217 155.579 551.727 156.816 552.226 158.059L551.297 158.431C551.792 159.665 552.274 160.906 552.743 162.153L553.679 161.8C554.151 163.054 554.611 164.314 555.057 165.58L554.114 165.913C554.556 167.166 554.985 168.426 555.402 169.693L556.352 169.38C556.769 170.648 557.173 171.923 557.565 173.203L556.608 173.495C556.998 174.769 557.374 176.049 557.738 177.336L558.7 177.064C559.064 178.35 559.414 179.643 559.752 180.941L558.784 181.193C559.117 182.476 559.438 183.765 559.746 185.061L560.719 184.829C561.028 186.131 561.325 187.439 561.608 188.754L560.63 188.964C560.911 190.266 561.178 191.573 561.432 192.887L562.414 192.697C562.667 194.003 562.907 195.314 563.134 196.632L562.148 196.802C562.374 198.112 562.586 199.429 562.786 200.751L563.775 200.602C563.975 201.929 564.162 203.261 564.336 204.6L563.344 204.728C563.514 206.037 563.671 207.352 563.815 208.672L564.809 208.563C564.954 209.89 565.086 211.222 565.205 212.56L564.209 212.648C564.327 213.979 564.432 215.316 564.524 216.658L565.522 216.589C565.613 217.914 565.691 219.243 565.756 220.578L564.757 220.627C564.822 221.95 564.873 223.278 564.912 224.612L565.912 224.583Z" stroke="black" stroke-opacity="0.26" stroke-width="2" stroke-dasharray="4 4"/>
</svg>
