<svg width="604" height="599" viewBox="0 0 604 599" fill="none" xmlns="http://www.w3.org/2000/svg">
<path d="M603.94 293.629C603.967 294.964 603.984 296.301 603.993 297.641L602.993 297.647C602.998 298.315 603 298.982 603 299.651C603 300.319 602.998 300.987 602.993 301.654L603.993 301.661C603.984 303 603.967 304.337 603.94 305.672L602.94 305.652C602.914 306.982 602.878 308.311 602.834 309.637L603.834 309.67C603.789 311.001 603.736 312.329 603.675 313.655L602.676 313.609C602.614 314.94 602.543 316.268 602.463 317.594L603.462 317.654C603.381 318.99 603.292 320.323 603.195 321.654L602.197 321.581C602.1 322.907 601.994 324.231 601.879 325.553L602.875 325.639C602.76 326.965 602.636 328.289 602.503 329.61L601.508 329.51C601.375 330.837 601.232 332.161 601.082 333.483L602.075 333.596C601.924 334.925 601.763 336.25 601.594 337.573L600.602 337.446C600.434 338.765 600.256 340.08 600.07 341.393L601.061 341.534C600.874 342.852 600.679 344.167 600.475 345.48L599.487 345.327C599.282 346.645 599.068 347.96 598.846 349.273L599.832 349.44C599.609 350.757 599.377 352.071 599.137 353.382L598.153 353.202C597.914 354.509 597.666 355.812 597.409 357.113L598.39 357.307C598.132 358.615 597.865 359.92 597.59 361.222L596.612 361.016C596.336 362.319 596.052 363.62 595.759 364.918L596.734 365.138C596.44 366.44 596.138 367.739 595.827 369.035L594.855 368.801C594.545 370.093 594.226 371.381 593.9 372.665L594.869 372.912C594.539 374.206 594.202 375.496 593.856 376.784L592.89 376.524C592.544 377.81 592.19 379.093 591.827 380.372L592.789 380.644C592.425 381.928 592.053 383.208 591.672 384.484L590.714 384.198C590.334 385.47 589.947 386.739 589.55 388.004L590.505 388.303C590.105 389.578 589.698 390.85 589.281 392.118L588.331 391.806C587.916 393.071 587.493 394.331 587.062 395.588L588.008 395.913C587.575 397.174 587.134 398.431 586.684 399.685L585.743 399.348C585.294 400.598 584.838 401.845 584.373 403.088L585.31 403.438C584.842 404.69 584.366 405.937 583.882 407.181L582.95 406.818C582.467 408.057 581.977 409.292 581.478 410.524L582.405 410.899C581.904 412.134 581.396 413.366 580.879 414.593L579.957 414.205C579.441 415.431 578.917 416.653 578.385 417.87L579.302 418.27C578.767 419.494 578.224 420.713 577.674 421.928L576.763 421.515C576.214 422.726 575.657 423.932 575.093 425.135L575.998 425.56C575.432 426.766 574.857 427.968 574.275 429.165L573.376 428.728C572.794 429.925 572.204 431.117 571.607 432.305L572.5 432.755C571.901 433.947 571.293 435.134 570.678 436.318L569.791 435.856C569.178 437.035 568.557 438.21 567.928 439.38L568.809 439.853C568.178 441.028 567.54 442.198 566.893 443.363L566.019 442.878C565.373 444.041 564.721 445.2 564.06 446.354L564.928 446.851C564.265 448.008 563.595 449.161 562.917 450.309L562.056 449.801C561.381 450.945 560.698 452.084 560.008 453.219L560.862 453.739C560.168 454.878 559.467 456.013 558.759 457.143L557.911 456.612C557.205 457.738 556.491 458.86 555.77 459.976L556.61 460.519C555.886 461.639 555.156 462.754 554.417 463.864L553.585 463.311C552.849 464.417 552.106 465.518 551.356 466.615L552.181 467.179C551.427 468.28 550.666 469.376 549.898 470.467L549.081 469.891C548.315 470.978 547.542 472.06 546.763 473.136L547.573 473.722C546.79 474.802 546.001 475.877 545.205 476.946L544.403 476.349C543.609 477.414 542.807 478.475 542 479.53L542.793 480.138C541.982 481.197 541.164 482.251 540.339 483.298L539.554 482.68C538.732 483.724 537.902 484.763 537.067 485.796L537.844 486.425C537.005 487.462 536.16 488.493 535.308 489.518L534.539 488.879C533.689 489.901 532.833 490.918 531.969 491.929L532.73 492.578C531.864 493.592 530.991 494.601 530.112 495.603L529.36 494.944C528.484 495.943 527.601 496.937 526.711 497.924L527.454 498.593C526.562 499.584 525.662 500.569 524.757 501.548L524.023 500.869C523.12 501.844 522.211 502.814 521.296 503.778L522.021 504.466C521.102 505.433 520.177 506.394 519.246 507.349L518.53 506.65C517.602 507.602 516.668 508.547 515.727 509.486L516.433 510.194C515.49 511.136 514.54 512.072 513.584 513.001L512.887 512.284C511.934 513.211 510.975 514.131 510.01 515.045L510.697 515.771C509.729 516.688 508.754 517.598 507.774 518.502L507.096 517.767C506.119 518.668 505.135 519.563 504.146 520.451L504.814 521.195C503.822 522.086 502.824 522.97 501.821 523.848L501.162 523.095C500.162 523.969 499.156 524.838 498.143 525.699L498.792 526.461C497.776 527.325 496.755 528.183 495.728 529.035L495.089 528.265C494.066 529.113 493.037 529.954 492.003 530.789L492.63 531.567C491.593 532.404 490.55 533.234 489.501 534.057L488.884 533.271C487.838 534.092 486.788 534.906 485.731 535.713L486.338 536.507C485.278 537.317 484.213 538.12 483.141 538.916L482.545 538.114C481.479 538.906 480.408 539.692 479.331 540.47L479.917 541.28C478.836 542.061 477.751 542.835 476.66 543.602L476.085 542.784C474.997 543.549 473.905 544.306 472.807 545.057L473.371 545.883C472.27 546.635 471.164 547.381 470.052 548.119L469.499 547.286C468.393 548.021 467.282 548.748 466.165 549.469L466.708 550.309C465.587 551.032 464.462 551.748 463.332 552.456L462.801 551.609C461.674 552.315 460.543 553.014 459.406 553.706L459.926 554.56C458.788 555.253 457.644 555.938 456.496 556.617L455.987 555.756C454.844 556.431 453.696 557.099 452.543 557.76L453.04 558.627C451.883 559.29 450.721 559.945 449.555 560.593L449.069 559.719C447.906 560.365 446.739 561.004 445.567 561.635L446.041 562.515C444.868 563.146 443.691 563.77 442.51 564.386L442.047 563.499C440.87 564.113 439.687 564.719 438.501 565.318L438.951 566.211C437.76 566.812 436.565 567.405 435.365 567.991L434.927 567.092C433.732 567.675 432.534 568.25 431.33 568.818L431.757 569.722C430.553 570.291 429.344 570.851 428.132 571.404L427.717 570.494C426.508 571.045 425.295 571.588 424.078 572.123L424.48 573.039C423.259 573.576 422.033 574.105 420.803 574.627L420.413 573.706C419.191 574.224 417.964 574.735 416.734 575.237L417.112 576.163C415.88 576.667 414.643 577.162 413.402 577.65L413.036 576.72C411.799 577.206 410.559 577.684 409.314 578.154L409.668 579.09C408.419 579.562 407.166 580.026 405.909 580.482L405.568 579.542C404.322 579.994 403.072 580.438 401.818 580.874L402.147 581.819C400.889 582.256 399.627 582.686 398.362 583.107L398.046 582.159C396.784 582.579 395.519 582.991 394.251 583.395L394.554 584.348C393.283 584.752 392.009 585.149 390.731 585.537L390.44 584.58C389.172 584.966 387.9 585.343 386.624 585.712L386.902 586.673C385.623 587.043 384.339 587.406 383.053 587.76L382.787 586.796C381.505 587.148 380.219 587.493 378.93 587.83L379.182 588.797C377.894 589.134 376.602 589.462 375.306 589.781L375.067 588.811C373.779 589.128 372.489 589.438 371.195 589.739L371.422 590.713C370.124 591.015 368.823 591.309 367.518 591.595L367.304 590.618C366.004 590.903 364.701 591.179 363.395 591.447L363.596 592.427C362.293 592.694 360.987 592.953 359.679 593.204L359.491 592.222C358.188 592.471 356.883 592.712 355.574 592.945L355.749 593.929C354.437 594.163 353.121 594.388 351.802 594.604L351.64 593.618C350.327 593.834 349.01 594.041 347.69 594.24L347.839 595.229C346.527 595.427 345.211 595.616 343.892 595.797L343.756 594.807C342.442 594.987 341.125 595.159 339.806 595.323L339.929 596.315C338.605 596.48 337.279 596.635 335.95 596.783L335.839 595.789C334.518 595.935 333.193 596.073 331.866 596.202L331.963 597.198C330.642 597.327 329.318 597.447 327.992 597.559L327.907 596.562C326.585 596.674 325.261 596.777 323.934 596.872L324.005 597.869C322.674 597.964 321.34 598.051 320.004 598.128L319.946 597.13C318.62 597.207 317.291 597.276 315.961 597.336L316.006 598.335C314.68 598.395 313.351 598.446 312.02 598.489L311.988 597.49C310.662 597.533 309.333 597.567 308.002 597.593L308.022 598.593C306.687 598.619 305.35 598.636 304.01 598.644L304.004 597.644C303.336 597.649 302.668 597.651 302 597.651C301.332 597.651 300.664 597.649 299.997 597.644L299.99 598.644C298.651 598.636 297.314 598.618 295.979 598.593L295.998 597.593C294.668 597.567 293.339 597.533 292.013 597.49L291.98 598.489C290.65 598.446 289.321 598.395 287.995 598.335L288.04 597.336C286.709 597.276 285.381 597.207 284.054 597.13L283.996 598.128C282.66 598.051 281.327 597.964 279.995 597.869L280.067 596.872C278.74 596.777 277.415 596.674 276.093 596.563L276.009 597.559C274.683 597.447 273.359 597.327 272.037 597.198L272.134 596.203C270.807 596.073 269.483 595.935 268.161 595.789L268.051 596.783C266.722 596.635 265.395 596.48 264.072 596.315L264.195 595.323C262.875 595.159 261.558 594.987 260.244 594.807L260.108 595.797C258.79 595.616 257.474 595.427 256.161 595.229L256.31 594.24C254.991 594.041 253.674 593.834 252.36 593.618L252.198 594.605C250.879 594.388 249.564 594.163 248.251 593.929L248.426 592.945C247.118 592.712 245.812 592.471 244.51 592.222L244.322 593.204C243.013 592.953 241.707 592.694 240.405 592.427L240.606 591.448C239.299 591.18 237.996 590.903 236.696 590.618L236.482 591.595C235.178 591.31 233.876 591.016 232.578 590.713L232.805 589.739C231.512 589.438 230.221 589.128 228.934 588.811L228.694 589.781C227.399 589.462 226.107 589.134 224.818 588.797L225.071 587.83C223.781 587.493 222.496 587.149 221.213 586.796L220.948 587.76C219.661 587.406 218.378 587.044 217.098 586.673L217.376 585.713C216.101 585.343 214.829 584.966 213.56 584.581L213.27 585.537C211.992 585.149 210.717 584.752 209.446 584.348L209.75 583.395C208.481 582.991 207.216 582.579 205.955 582.159L205.639 583.107C204.373 582.686 203.112 582.256 201.854 581.819L202.182 580.874C200.928 580.438 199.678 579.994 198.432 579.542L198.091 580.482C196.834 580.026 195.582 579.562 194.333 579.09L194.686 578.155C193.442 577.684 192.201 577.206 190.964 576.72L190.598 577.65C189.358 577.163 188.121 576.667 186.888 576.163L187.266 575.238C186.036 574.735 184.81 574.224 183.587 573.706L183.197 574.627C181.967 574.105 180.741 573.576 179.52 573.039L179.923 572.123C178.705 571.588 177.492 571.045 176.283 570.494L175.869 571.404C174.656 570.851 173.447 570.291 172.243 569.723L172.67 568.818C171.467 568.251 170.268 567.675 169.074 567.092L168.635 567.991C167.435 567.405 166.24 566.812 165.049 566.211L165.5 565.318C164.313 564.719 163.131 564.113 161.953 563.499L161.491 564.386C160.309 563.77 159.132 563.146 157.96 562.515L158.434 561.635C157.261 561.004 156.094 560.365 154.931 559.719L154.446 560.594C153.279 559.946 152.117 559.29 150.96 558.627L151.458 557.76C150.304 557.099 149.156 556.431 148.013 555.756L147.504 556.617C146.356 555.939 145.213 555.253 144.074 554.56L144.594 553.706C143.457 553.014 142.326 552.315 141.199 551.609L140.668 552.456C139.538 551.748 138.413 551.032 137.293 550.309L137.835 549.469C136.719 548.749 135.607 548.021 134.501 547.286L133.948 548.119C132.837 547.381 131.73 546.635 130.629 545.883L131.194 545.057C130.096 544.307 129.003 543.549 127.916 542.785L127.34 543.603C126.249 542.836 125.164 542.062 124.084 541.281L124.67 540.47C123.593 539.692 122.521 538.906 121.455 538.114L120.859 538.917C119.788 538.12 118.722 537.317 117.662 536.508L118.269 535.713C117.213 534.906 116.162 534.092 115.117 533.271L114.499 534.058C113.45 533.234 112.407 532.404 111.37 531.567L111.998 530.789C110.963 529.954 109.934 529.113 108.911 528.265L108.273 529.035C107.245 528.183 106.224 527.326 105.209 526.461L105.857 525.7C104.845 524.838 103.838 523.97 102.838 523.095L102.18 523.848C101.176 522.97 100.178 522.086 99.1862 521.196L99.8544 520.452C98.865 519.563 97.8817 518.669 96.9044 517.767L96.2265 518.503C95.246 517.598 94.2714 516.688 93.3031 515.771L93.9906 515.045C93.0255 514.131 92.0665 513.211 91.1137 512.285L90.4166 513.002C89.4605 512.072 88.5106 511.136 87.567 510.194L88.2735 509.486C87.3327 508.547 86.3981 507.602 85.4699 506.65L84.7541 507.349C83.8229 506.394 82.898 505.433 81.9795 504.467L82.7045 503.778C81.789 502.814 80.88 501.845 79.9774 500.869L79.2434 501.548C78.3378 500.569 77.4387 499.584 76.5462 498.594L77.2892 497.924C76.3996 496.937 75.5165 495.943 74.6401 494.944L73.8883 495.604C73.009 494.601 72.1362 493.593 71.2702 492.578L72.0307 491.929C71.1676 490.918 70.3111 489.902 69.4615 488.879L68.6924 489.519C67.8402 488.493 66.9947 487.462 66.1561 486.426L66.9336 485.797C66.0977 484.763 65.2687 483.725 64.4465 482.68L63.6608 483.299C62.8358 482.251 62.0178 481.197 61.2068 480.138L62.0007 479.53C61.1927 478.475 60.3916 477.415 59.5975 476.349L58.7956 476.946C57.9992 475.877 57.2098 474.803 56.4276 473.723L57.2374 473.136C56.4577 472.06 55.6851 470.978 54.9196 469.891L54.102 470.467C53.334 469.377 52.5731 468.281 51.8195 467.18L52.6447 466.615C51.8944 465.519 51.1513 464.417 50.4155 463.311L49.5828 463.865C48.8446 462.755 48.1137 461.639 47.3902 460.519L48.2302 459.977C47.509 458.86 46.7952 457.739 46.0887 456.612L45.2415 457.143C44.533 456.013 43.8319 454.879 43.1383 453.739L43.9926 453.219C43.3022 452.085 42.6193 450.945 41.9438 449.801L41.0827 450.31C40.405 449.161 39.7347 448.009 39.0721 446.851L39.94 446.354C39.2796 445.2 38.6267 444.042 37.9815 442.878L37.107 443.363C36.4606 442.198 35.8218 441.028 35.1908 439.853L36.0717 439.38C35.4433 438.21 34.8225 437.036 34.2094 435.856L33.3222 436.318C32.707 435.135 32.0996 433.947 31.5 432.755L32.3934 432.306C31.7959 431.118 31.2061 429.925 30.6242 428.728L29.7249 429.165C29.1427 427.968 28.5684 426.766 28.002 425.56L28.9072 425.135C28.3426 423.933 27.786 422.726 27.2373 421.515L26.3264 421.928C25.7759 420.713 25.2332 419.494 24.6986 418.271L25.6149 417.87C25.0829 416.653 24.5589 415.431 24.0428 414.205L23.1212 414.593C22.6046 413.366 22.096 412.135 21.5956 410.899L22.5224 410.524C22.0236 409.293 21.5329 408.057 21.0503 406.818L20.1185 407.181C19.6342 405.938 19.1582 404.69 18.6903 403.439L19.627 403.089C19.1623 401.846 18.7057 400.599 18.2573 399.348L17.316 399.685C16.8666 398.432 16.4254 397.174 15.9925 395.913L16.9383 395.589C16.5069 394.332 16.0837 393.071 15.6688 391.807L14.7187 392.119C14.3026 390.85 13.8947 389.578 13.4953 388.303L14.4496 388.004C14.0536 386.739 13.6658 385.471 13.2863 384.199L12.328 384.485C11.9473 383.208 11.5749 381.928 11.211 380.645L12.1731 380.372C11.8104 379.093 11.4561 377.81 11.1102 376.524L10.1445 376.784C9.79836 375.497 9.46064 374.206 9.13143 372.912L10.1006 372.666C9.77376 371.381 9.45537 370.093 9.14547 368.802L8.17309 369.035C7.86214 367.74 7.5597 366.441 7.26584 365.139L8.2413 364.918C7.94844 363.621 7.66413 362.32 7.38842 361.016L6.41005 361.223C6.13474 359.921 5.86798 358.615 5.60984 357.307L6.59093 357.114C6.33429 355.813 6.08619 354.509 5.8467 353.202L4.86309 353.383C4.62278 352.072 4.39112 350.757 4.16815 349.44L5.15412 349.273C4.9319 347.961 4.71835 346.645 4.51353 345.327L3.52539 345.481C3.32144 344.168 3.12612 342.852 2.93948 341.534L3.92961 341.394C3.74371 340.081 3.56646 338.765 3.39791 337.447L2.40598 337.574C2.23686 336.251 2.07647 334.925 1.92487 333.597L2.91842 333.483C2.76754 332.162 2.62541 330.837 2.49206 329.51L1.49707 329.61C1.36434 328.289 1.24029 326.966 1.12498 325.64L2.12122 325.553C2.0063 324.232 1.90008 322.908 1.80264 321.581L0.805328 321.655C0.707557 320.324 0.618583 318.99 0.538465 317.655L1.53667 317.595C1.45711 316.269 1.38632 314.94 1.32434 313.609L0.325419 313.656C0.263661 312.33 0.210629 311.001 0.166377 309.671L1.16582 309.637C1.12172 308.311 1.08637 306.983 1.05982 305.652L0.0600206 305.672C0.0333864 304.337 0.0155887 303 0.00668284 301.661L1.00666 301.655C1.00222 300.987 1 300.319 1 299.651C1 298.983 1.00222 298.315 1.00666 297.648L0.00667898 297.641C0.0155823 296.302 0.0333779 294.965 0.06001 293.63L1.05981 293.65C1.08635 292.319 1.1217 290.991 1.16581 289.665L0.166359 289.632C0.210608 288.301 0.263638 286.973 0.325393 285.647L1.32431 285.693C1.38629 284.362 1.45708 283.034 1.53664 281.707L0.538434 281.647C0.61855 280.312 0.707522 278.979 0.805291 277.648L1.8026 277.721C1.90004 276.395 2.00625 275.071 2.12117 273.749L1.12493 273.663C1.24024 272.337 1.36429 271.013 1.49702 269.692L2.49201 269.792C2.62536 268.465 2.76749 267.141 2.91836 265.819L1.92481 265.705C2.07641 264.377 2.2368 263.052 2.40592 261.729L3.39785 261.856C3.5664 260.537 3.74365 259.221 3.92954 257.908L2.93941 257.768C3.12605 256.45 3.32137 255.134 3.52532 253.822L4.51346 253.975C4.71828 252.657 4.93183 251.341 5.15404 250.029L4.16807 249.862C4.39104 248.545 4.62271 247.231 4.86301 245.92L5.84662 246.1C6.08611 244.793 6.3342 243.489 6.59084 242.189L5.60975 241.995C5.86789 240.687 6.13465 239.382 6.40996 238.079L7.38833 238.286C7.66404 236.982 7.94835 235.681 8.24121 234.384L7.26575 234.164C7.55961 232.862 7.86204 231.563 8.17299 230.267L9.14538 230.5C9.45527 229.209 9.77366 227.921 10.1005 226.637L9.13133 226.39C9.46054 225.096 9.79826 223.805 10.1444 222.518L11.1101 222.778C11.456 221.492 11.8103 220.209 12.173 218.93L11.2109 218.657C11.5748 217.374 11.9472 216.094 12.3279 214.818L13.2862 215.103C13.6657 213.831 14.0535 212.563 14.4495 211.298L13.4952 210.999C13.8946 209.724 14.3024 208.452 14.7186 207.184L15.6687 207.495C16.0836 206.231 16.5068 204.97 16.9382 203.713L15.9924 203.389C16.4253 202.128 16.8665 200.87 17.3158 199.617L18.2572 199.954C18.7056 198.703 19.1621 197.457 19.6269 196.214L18.6902 195.863C19.158 194.612 19.6341 193.364 20.1184 192.121L21.0502 192.484C21.5328 191.245 22.0235 190.009 22.5223 188.778L21.5954 188.403C22.0959 187.167 22.6045 185.936 23.1211 184.709L24.0427 185.097C24.5587 183.871 25.0828 182.649 25.6148 181.432L24.6985 181.031C25.2331 179.808 25.7757 178.589 26.3263 177.374L27.2371 177.787C27.7859 176.576 28.3425 175.369 28.907 174.167L28.0019 173.742C28.5683 172.536 29.1426 171.334 29.7247 170.137L30.6241 170.574C31.206 169.377 31.7957 168.184 32.3933 166.996L31.4999 166.547C32.0995 165.355 32.7069 164.167 33.322 162.984L34.2093 163.446C34.8223 162.266 35.4431 161.092 36.0715 159.922L35.1906 159.449C35.8217 158.274 36.4604 157.104 37.1068 155.939L37.9813 156.424C38.6266 155.26 39.2794 154.102 39.9399 152.948L39.072 152.451C39.7346 151.293 40.4048 150.141 41.0825 148.992L41.9437 149.501C42.6191 148.357 43.3021 147.217 43.9924 146.083L43.1382 145.563C43.8318 144.423 44.5329 143.289 45.2413 142.159L46.0885 142.69C46.795 141.563 47.5088 140.442 48.23 139.325L47.39 138.783C48.1136 137.663 48.8445 136.547 49.5827 135.437L50.4153 135.991C51.1512 134.885 51.8942 133.783 52.6445 132.687L51.8193 132.122C52.5729 131.021 53.3338 129.925 54.1019 128.835L54.9195 129.411C55.6849 128.324 56.4575 127.242 57.2372 126.166L56.4274 125.579C57.2097 124.499 57.999 123.425 58.7954 122.356L59.5973 122.953C60.3914 121.887 61.1925 120.827 62.0005 119.772L61.2066 119.164C62.0176 118.105 62.8356 117.051 63.6606 116.003L64.4463 116.622C65.2685 115.577 66.0975 114.539 66.9334 113.505L66.1559 112.876C66.9945 111.84 67.84 110.809 68.6922 109.783L69.4613 110.423C70.311 109.4 71.1674 108.384 72.0305 107.373L71.27 106.724C72.136 105.709 73.0088 104.701 73.8881 103.698L74.6399 104.358C75.5163 103.359 76.3994 102.365 77.289 101.378L76.546 100.708C77.4385 99.7175 78.3376 98.7327 79.2432 97.7538L79.9772 98.4329C80.8798 97.4573 81.7888 96.4877 82.7042 95.5241L81.9793 94.8354C82.8977 93.8686 83.8226 92.9078 84.7539 91.9532L85.4697 92.6515C86.3979 91.7001 87.3324 90.7547 88.2732 89.8155L87.5667 89.1078C88.5103 88.1658 89.4602 87.23 90.4164 86.3004L91.1134 87.0174C92.0663 86.0911 93.0253 85.171 93.9904 84.2571L93.3029 83.531C94.2712 82.6141 95.2457 81.7036 96.2263 80.7994L96.9042 81.5346C97.8815 80.6335 98.8648 79.7387 99.8541 78.8504L99.186 78.1063C100.178 77.2158 101.176 76.3317 102.179 75.4541L102.838 76.207C103.838 75.3323 104.844 74.4641 105.857 73.6024L105.208 72.841C106.224 71.9764 107.245 71.1185 108.272 70.2672L108.911 71.0371C109.934 70.1892 110.963 69.3478 111.997 68.5132L111.37 67.7348C112.407 66.898 113.45 66.0678 114.499 65.2444L115.116 66.0309C116.162 65.2102 117.213 64.3962 118.269 63.5891L117.662 62.7944C118.722 61.9846 119.787 61.1816 120.859 60.3854L121.455 61.188C122.521 60.3957 123.593 59.6102 124.669 58.8317L124.083 58.0213C125.164 57.2403 126.249 56.4663 127.34 55.6993L127.915 56.5173C129.003 55.7529 130.095 54.9953 131.193 54.2449L130.629 53.4193C131.73 52.6667 132.836 51.9212 133.948 51.1828L134.501 52.0158C135.607 51.281 136.718 50.5534 137.835 49.8329L137.292 48.9927C138.413 48.2698 139.538 47.5541 140.668 46.8456L141.199 47.6928C142.326 46.9867 143.457 46.2877 144.594 45.596L144.074 44.7418C145.212 44.0489 146.356 43.3634 147.504 42.6851L148.013 43.5462C149.156 42.8709 150.304 42.2029 151.457 41.5423L150.96 40.6746C152.117 40.0117 153.279 39.3563 154.445 38.7083L154.931 39.5825C156.094 38.9366 157.261 38.2982 158.433 37.6672L157.959 36.7867C159.132 36.1557 160.309 35.5321 161.49 34.9161L161.953 35.8028C163.13 35.1889 164.313 34.5824 165.499 33.9835L165.049 33.0908C166.24 32.4899 167.435 31.8966 168.635 31.311L169.073 32.2096C170.268 31.6267 171.466 31.0513 172.67 30.4837L172.243 29.5793C173.447 29.0112 174.656 28.4508 175.868 27.8981L176.283 28.808C177.492 28.2572 178.705 27.714 179.922 27.1786L179.52 26.2632C180.741 25.726 181.967 25.1966 183.197 24.6751L183.587 25.5957C184.809 25.0775 186.036 24.567 187.266 24.0643L186.888 23.1386C188.12 22.635 189.357 22.1393 190.598 21.6515L190.964 22.5822C192.201 22.096 193.441 21.6177 194.686 21.1473L194.332 20.2119C195.581 19.7399 196.834 19.276 198.091 18.82L198.432 19.7601C199.678 19.308 200.928 18.8638 202.182 18.4276L201.853 17.4831C203.111 17.0455 204.373 16.6159 205.638 16.1944L205.954 17.1431C207.216 16.723 208.481 16.3109 209.749 15.9069L209.446 14.9541C210.717 14.5494 211.991 14.1529 213.269 13.7645L213.56 14.7213C214.828 14.3359 216.1 13.9586 217.376 13.5893L217.098 12.6288C218.377 12.2583 219.661 11.896 220.947 11.542L221.213 12.5061C222.495 12.1532 223.781 11.8086 225.07 11.4721L224.818 10.5045C226.106 10.1682 227.398 9.84017 228.694 9.52038L228.933 10.4912C230.221 10.1735 231.511 9.86388 232.805 9.56257L232.578 8.58864C233.876 8.28633 235.177 7.99231 236.482 7.70664L236.696 8.68349C237.996 8.39876 239.299 8.12236 240.605 7.85434L240.404 6.87474C241.707 6.6075 243.013 6.34857 244.321 6.098L244.509 7.08016C245.812 6.83077 247.117 6.58969 248.426 6.35699L248.251 5.37244C249.563 5.13897 250.879 4.91389 252.198 4.69727L252.36 5.68405C253.673 5.46821 254.99 5.26081 256.31 5.06188L256.161 4.07305C257.473 3.87511 258.789 3.68554 260.108 3.5044L260.244 4.49509C261.558 4.31454 262.875 4.14239 264.194 3.9787L264.071 2.98631C265.395 2.82207 266.721 2.66632 268.05 2.51912L268.161 3.51304C269.482 3.36663 270.807 3.22871 272.134 3.09931L272.037 2.10403C273.358 1.97517 274.682 1.85474 276.008 1.74279L276.093 2.73925C277.415 2.62767 278.739 2.52456 280.066 2.42995L279.995 1.43249C281.326 1.33757 282.66 1.25121 283.996 1.17344L284.054 2.17175C285.38 2.09455 286.709 2.02585 288.039 1.96571L287.994 0.966726C289.32 0.906783 290.649 0.855309 291.98 0.812359L292.012 1.81184C293.338 1.76903 294.667 1.73471 295.998 1.70894L295.978 0.709132C297.313 0.683282 298.65 0.666008 299.99 0.657365L299.996 1.65734C300.664 1.65304 301.332 1.65088 302 1.65088C302.668 1.65088 303.336 1.65303 304.003 1.65734L304.01 0.657361C305.349 0.666002 306.686 0.683273 308.021 0.709121L308.002 1.70893C309.332 1.7347 310.661 1.76901 311.987 1.81182L312.02 0.812341C313.35 0.855289 314.679 0.906761 316.005 0.966703L315.96 1.96568C317.291 2.02582 318.619 2.09452 319.945 2.17172L320.004 1.17341C321.34 1.25117 322.673 1.33754 324.004 1.43245L323.933 2.42992C325.26 2.52452 326.585 2.62763 327.907 2.73921L327.991 1.74275C329.317 1.85469 330.641 1.97512 331.963 2.10398L331.866 3.09926C333.193 3.22865 334.517 3.36658 335.839 3.51298L335.949 2.51906C337.278 2.66627 338.605 2.82201 339.928 2.98625L339.805 3.97864C341.125 4.14233 342.442 4.31448 343.756 4.49503L343.892 3.50433C345.21 3.68547 346.526 3.87504 347.839 4.07298L347.69 5.06181C349.009 5.26073 350.326 5.46814 351.64 5.68397L351.802 4.6972C353.121 4.91381 354.436 5.13889 355.749 5.37236L355.574 6.35691C356.882 6.58961 358.188 6.83068 359.49 7.08007L359.678 6.09791C360.987 6.34848 362.293 6.60741 363.595 6.87466L363.394 7.85425C364.701 8.12227 366.004 8.39867 367.304 8.6834L367.518 7.70655C368.822 7.99222 370.124 8.28624 371.422 8.58855L371.195 9.56248C372.488 9.86379 373.779 10.1734 375.066 10.4911L375.306 9.52028C376.601 9.84006 377.893 10.1681 379.182 10.5044L378.929 11.472C380.219 11.8084 381.504 12.1531 382.787 12.506L383.052 11.5419C384.339 11.8959 385.622 12.2582 386.902 12.6287L386.624 13.5892C387.899 13.9584 389.171 14.3358 390.44 14.7212L390.73 13.7644C392.008 14.1528 393.283 14.5493 394.554 14.9539L394.25 15.9068C395.519 16.3108 396.784 16.7229 398.045 17.143L398.361 16.1942C399.627 16.6158 400.888 17.0454 402.146 17.483L401.818 18.4275C403.072 18.8637 404.322 19.3078 405.568 19.76L405.909 18.8199C407.166 19.2758 408.418 19.7398 409.667 20.2117L409.314 21.1472C410.558 21.6175 411.799 22.0958 413.036 22.582L413.402 21.6514C414.642 22.1392 415.879 22.6349 417.112 23.1385L416.734 24.0642C417.964 24.5668 419.19 25.0773 420.413 25.5956L420.803 24.675C422.033 25.1965 423.259 25.7259 424.48 26.2631L424.077 27.1785C425.295 27.7139 426.508 28.257 427.717 28.8079L428.131 27.8979C429.344 28.4506 430.553 29.011 431.757 29.5791L431.33 30.4835C432.533 31.0512 433.732 31.6265 434.926 32.2095L435.365 31.3108C436.565 31.8965 437.76 32.4897 438.951 33.0906L438.5 33.9834C439.687 34.5823 440.869 35.1887 442.047 35.8026L442.509 34.9159C443.691 35.532 444.868 36.1555 446.04 36.7866L445.566 37.6671C446.739 38.298 447.906 38.9365 449.069 39.5823L449.554 38.7081C450.721 39.3561 451.883 40.0116 453.04 40.6744L452.542 41.5421C453.695 42.2027 454.844 42.8707 455.987 43.546L456.496 42.6849C457.644 43.3632 458.787 44.0488 459.926 44.7416L459.406 45.5958C460.543 46.2875 461.674 46.9865 462.801 47.6927L463.332 46.8454C464.462 47.5539 465.587 48.2696 466.707 48.9925L466.165 49.8327C467.281 50.5532 468.392 51.2809 469.498 52.0156L470.052 51.1826C471.163 51.921 472.27 52.6665 473.371 53.4191L472.806 54.2447C473.904 54.9952 474.997 55.7527 476.084 56.5172L476.66 55.6991C477.751 56.4661 478.836 57.2402 479.916 58.0211L479.33 58.8315C480.407 59.61 481.479 60.3955 482.545 61.1878L483.141 60.3852C484.212 61.1814 485.278 61.9844 486.338 62.7943L485.731 63.5889C486.787 64.3961 487.838 65.21 488.883 66.0307L489.501 65.2442C490.55 66.0676 491.593 66.8978 492.63 67.7346L492.002 68.5129C493.037 69.3476 494.066 70.189 495.089 71.0369L495.727 70.267C496.755 71.1183 497.776 71.9762 498.791 72.8407L498.143 73.6022C499.155 74.4639 500.162 75.3321 501.162 76.2067L501.82 75.4539C502.824 76.3315 503.822 77.2156 504.814 78.1061L504.146 78.8502C505.135 79.7385 506.118 80.6333 507.096 81.5344L507.773 80.7992C508.754 81.7033 509.729 82.6139 510.697 83.5308L510.009 84.2569C510.975 85.1707 511.934 86.0909 512.886 87.0172L513.583 86.3002C514.54 87.2298 515.489 88.1656 516.433 89.1076L515.727 89.8153C516.667 90.7545 517.602 91.6998 518.53 92.6513L519.246 91.953C520.177 92.9076 521.102 93.8683 522.021 94.8351L521.296 95.5239C522.211 96.4875 523.12 97.4571 524.023 98.4327L524.757 97.7536C525.662 98.7324 526.561 99.7173 527.454 100.708L526.711 101.377C527.6 102.365 528.483 103.358 529.36 104.358L530.112 103.698C530.991 104.701 531.864 105.709 532.73 106.723L531.969 107.373C532.832 108.383 533.689 109.4 534.539 110.422L535.308 109.783C536.16 110.808 537.005 111.839 537.844 112.876L537.066 113.505C537.902 114.538 538.731 115.577 539.553 116.622L540.339 116.003C541.164 117.051 541.982 118.104 542.793 119.163L541.999 119.771C542.807 120.827 543.608 121.887 544.402 122.953L545.204 122.356C546.001 123.425 546.79 124.499 547.572 125.579L546.763 126.166C547.542 127.242 548.315 128.324 549.08 129.41L549.898 128.835C550.666 129.925 551.427 131.021 552.181 132.122L551.355 132.687C552.106 133.783 552.849 134.884 553.584 135.991L554.417 135.437C555.155 136.547 555.886 137.662 556.61 138.783L555.77 139.325C556.491 140.442 557.205 141.563 557.911 142.69L558.758 142.158C559.467 143.288 560.168 144.423 560.862 145.563L560.007 146.083C560.698 147.217 561.381 148.356 562.056 149.501L562.917 148.992C563.595 150.14 564.265 151.293 564.928 152.451L564.06 152.948C564.72 154.101 565.373 155.26 566.019 156.423L566.893 155.938C567.539 157.104 568.178 158.274 568.809 159.449L567.928 159.922C568.557 161.092 569.177 162.266 569.791 163.445L570.678 162.984C571.293 164.167 571.9 165.355 572.5 166.547L571.607 166.996C572.204 168.184 572.794 169.377 573.376 170.574L574.275 170.136C574.857 171.334 575.432 172.536 575.998 173.742L575.093 174.167C575.657 175.369 576.214 176.576 576.763 177.786L577.674 177.374C578.224 178.588 578.767 179.808 579.301 181.031L578.385 181.431C578.917 182.649 579.441 183.871 579.957 185.096L580.879 184.708C581.395 185.936 581.904 187.167 582.404 188.402L581.478 188.778C581.976 190.009 582.467 191.244 582.95 192.484L583.882 192.121C584.366 193.364 584.842 194.612 585.31 195.863L584.373 196.213C584.838 197.456 585.294 198.703 585.743 199.954L586.684 199.616C587.133 200.87 587.575 202.127 588.008 203.388L587.062 203.713C587.493 204.97 587.916 206.231 588.331 207.495L589.281 207.183C589.697 208.451 590.105 209.723 590.505 210.999L589.55 211.298C589.946 212.563 590.334 213.831 590.714 215.103L591.672 214.817C592.053 216.094 592.425 217.374 592.789 218.657L591.827 218.93C592.19 220.209 592.544 221.491 592.89 222.777L593.855 222.518C594.202 223.805 594.539 225.096 594.869 226.39L593.899 226.636C594.226 227.921 594.545 229.209 594.855 230.5L595.827 230.267C596.138 231.562 596.44 232.861 596.734 234.163L595.759 234.383C596.052 235.681 596.336 236.982 596.612 238.286L597.59 238.079C597.865 239.381 598.132 240.686 598.39 241.995L597.409 242.188C597.666 243.489 597.914 244.793 598.153 246.099L599.137 245.919C599.377 247.23 599.609 248.544 599.832 249.861L598.846 250.028C599.068 251.341 599.282 252.656 599.486 253.975L600.475 253.821C600.679 255.134 600.874 256.449 601.061 257.768L600.07 257.908C600.256 259.221 600.434 260.537 600.602 261.855L601.594 261.728C601.763 263.051 601.924 264.377 602.075 265.705L601.082 265.818C601.232 267.14 601.375 268.465 601.508 269.792L602.503 269.692C602.636 271.013 602.76 272.336 602.875 273.662L601.879 273.749C601.994 275.07 602.1 276.394 602.197 277.721L603.195 277.647C603.292 278.978 603.381 280.311 603.462 281.647L602.463 281.707C602.543 283.033 602.614 284.362 602.676 285.693L603.675 285.646C603.736 286.972 603.789 288.301 603.834 289.631L602.834 289.664C602.878 290.991 602.914 292.319 602.94 293.649L603.94 293.629Z" stroke="black" stroke-width="2" stroke-dasharray="4 4"/>
</svg>
