<svg width="80" height="80" viewBox="0 0 80 80" fill="none" xmlns="http://www.w3.org/2000/svg">
<g filter="url(#filter0_d_15_329)">
<rect x="4" y="2" width="72" height="72" rx="36" fill="#FF2626"/>
<path d="M26.0168 46.796L25.6451 46.1407C24.2213 43.6304 23.4807 40.7907 23.4974 37.9048C23.514 35.0189 24.2873 32.1878 25.74 29.6942C27.1927 27.2006 29.2741 25.1316 31.7763 23.6937C34.2785 22.2559 37.114 21.4995 39.9999 21.5L26.0168 46.796ZM26.0168 46.796L26.4763 46.1989M26.0168 46.796L26.4763 46.1989M26.4763 46.1989C27.3628 45.0468 28.5023 44.114 29.8068 43.4726C31.1113 42.8313 32.5458 42.4985 33.9995 42.5H34M26.4763 46.1989L34 42.5M34 42C32.4697 41.9984 30.9595 42.3487 29.5862 43.0239C28.3741 43.6199 27.2973 44.4548 26.4195 45.4766C26.4509 45.5336 26.4827 45.5906 26.5149 45.6473L34 42ZM34 42H46H34ZM34 42.5H46H46.0005M34 42.5H46.0005M46.0005 42.5C47.4542 42.4985 48.8887 42.8313 50.1932 43.4726C51.4977 44.114 52.6372 45.0468 53.5237 46.1989L53.9832 46.796M46.0005 42.5L53.9832 46.796M53.9832 46.796L54.3549 46.1407M53.9832 46.796L54.3549 46.1407M54.3549 46.1407C55.7787 43.6304 56.5193 40.7907 56.5026 37.9048M54.3549 46.1407L56.5026 37.9048M56.5026 37.9048C56.486 35.0189 55.7127 32.1878 54.26 29.6942M56.5026 37.9048L54.26 29.6942M54.26 29.6942C52.8073 27.2006 50.7259 25.1316 48.2237 23.6937M54.26 29.6942L48.2237 23.6937M48.2237 23.6937C45.7215 22.2559 42.886 21.4995 40.0001 21.5L48.2237 23.6937ZM55.4893 49.8477L55.3375 50.0455L55.3428 50.0645L54.8068 50.688L54.8064 50.6885C53.7095 51.968 52.4523 53.1006 51.0658 54.0586L51.0656 54.0587C47.8143 56.3066 43.9537 57.5073 40.0009 57.5H39.9996C37.186 57.5025 34.4055 56.8949 31.8494 55.719C29.2934 54.5432 27.0228 52.8271 25.194 50.689L25.1932 50.688L24.6572 50.0645L24.6625 50.0455L24.5107 49.8476C21.9037 46.4492 20.4936 42.284 20.5 38.0007V38C20.5 27.2301 29.2302 18.5 40 18.5C50.7698 18.5 59.5 27.2301 59.5 38V38.0007C59.5063 42.284 58.0962 46.4491 55.4893 49.8477ZM36.1109 28.1109C37.1424 27.0795 38.5413 26.5 40 26.5C41.4587 26.5 42.8576 27.0795 43.8891 28.1109C44.9205 29.1424 45.5 30.5413 45.5 32C45.5 33.4587 44.9205 34.8576 43.8891 35.8891C42.8576 36.9205 41.4587 37.5 40 37.5C38.5413 37.5 37.1424 36.9205 36.1109 35.8891C35.0795 34.8576 34.5 33.4587 34.5 32C34.5 30.5413 35.0795 29.1424 36.1109 28.1109Z" fill="white" stroke="white"/>
</g>
<defs>
<filter id="filter0_d_15_329" x="0" y="0" width="80" height="80" filterUnits="userSpaceOnUse" color-interpolation-filters="sRGB">
<feFlood flood-opacity="0" result="BackgroundImageFix"/>
<feColorMatrix in="SourceAlpha" type="matrix" values="0 0 0 0 0 0 0 0 0 0 0 0 0 0 0 0 0 0 127 0" result="hardAlpha"/>
<feOffset dy="2"/>
<feGaussianBlur stdDeviation="2"/>
<feColorMatrix type="matrix" values="0 0 0 0 0 0 0 0 0 0 0 0 0 0 0 0 0 0 0.1 0"/>
<feBlend mode="normal" in2="BackgroundImageFix" result="effect1_dropShadow_15_329"/>
<feBlend mode="normal" in="SourceGraphic" in2="effect1_dropShadow_15_329" result="shape"/>
</filter>
</defs>
</svg>
