<svg width="60" height="60" viewBox="0 0 60 60" fill="none" xmlns="http://www.w3.org/2000/svg">
<g id="Learn More icon">
<g id="Iconly/Bold/Play">
<g id="Play">
<path id="Vector" d="M36.5 6C49.4522 6 60 16.5427 60 29.5136C60 42.4573 49.4522 53 36.5 53C23.5478 53 13 42.4573 13 29.5136C13 16.5427 23.5478 6 36.5 6ZM33.8234 20.1703C33.3243 20.1703 32.848 20.2836 32.3943 20.5104C31.8272 20.8278 31.3736 21.3266 31.124 21.9161C30.9653 22.3242 30.7157 23.5485 30.7157 23.5712C30.4662 24.9088 30.3301 27.0854 30.3301 29.4887C30.3301 31.7808 30.4662 33.8644 30.6704 35.2248C30.693 35.2475 30.9426 36.7665 31.2148 37.288C31.7138 38.2402 32.6892 38.8297 33.7326 38.8297H33.8234C34.5039 38.807 35.9329 38.2176 35.9329 38.1949C38.3374 37.1973 43.0782 34.0912 44.9836 32.028L45.1197 31.8919C45.3692 31.6425 45.6868 31.2571 45.7548 31.1664C46.1178 30.6903 46.2992 30.1008 46.2992 29.5136C46.2992 28.8538 46.0951 28.2417 45.7095 27.7429C45.6187 27.6522 45.2785 27.2668 44.9609 26.9493C43.1009 24.9542 38.2466 21.6893 35.7061 20.6918C35.3205 20.5353 34.3451 20.193 33.8234 20.1703Z" fill="#5F6064"/>
</g>
</g>
<path id="Subtract" fill-rule="evenodd" clip-rule="evenodd" d="M30 0C13.4315 0 0 13.4315 0 30C0 46.5685 13.4315 60 30 60V56C15.6406 56 4 44.3594 4 30C4 15.6406 15.6406 4 30 4V0Z" fill="#FF2626"/>
</g>
</svg>
