<svg width="214" height="149" viewBox="0 0 214 149" fill="none" xmlns="http://www.w3.org/2000/svg">
    <g clip-path="url(#clip0_952_1010)">
    <path d="M80.7568 64.9527C81.4468 64.0124 82.3647 63.3522 83.3593 62.8025C85.8512 61.4246 88.4812 60.3784 91.1992 59.5516C94.3135 58.606 97.4735 57.8522 100.71 57.4155C101.212 57.3473 101.729 57.3789 102.239 57.3618C102.257 57.4465 102.278 57.5321 102.295 57.6169C102.03 57.6958 101.771 57.8136 101.497 57.8512C96.9534 58.4825 92.5311 59.5733 88.237 61.1624C86.3207 61.8719 84.4838 62.7634 82.7578 63.8719C82.3228 64.1506 81.9647 64.5498 81.5526 64.8694C81.3597 65.0185 81.1307 65.1158 80.9185 65.2348C80.863 65.143 80.8096 65.0497 80.7568 64.9527Z" fill="black" fill-opacity="0.75"/>
    <path d="M98.7687 60.688C100.768 59.2586 103.178 58.6835 105.444 57.6004C104.137 56.4222 102.559 55.8861 101.387 54.5588C102.151 54.6371 105.064 56.3916 106.768 57.7639C105.369 58.3183 104.04 58.8244 102.725 59.3672C101.443 59.898 100.178 60.4665 98.9054 61.0173C98.8588 60.906 98.8137 60.797 98.7687 60.688Z" fill="black" fill-opacity="0.75"/>
    <path d="M74.1338 108.117C74.7369 108.235 74.7875 108.694 74.7707 109.205C74.762 109.484 74.6895 109.817 74.8013 110.04C75.342 111.099 74.9885 111.884 74.2966 112.596C74.1752 112.723 74.0464 112.838 73.9361 112.944C73.9221 113.046 73.8918 113.124 73.9109 113.187C74.4634 115.07 73.3206 116.588 71.8139 117.089C71.0528 117.342 70.2925 117.524 69.4708 117.409C68.2326 117.236 67.2206 116.765 66.8764 115.309C65.8997 115.167 64.8477 115.319 64.1915 114.277C63.8305 113.702 63.551 113.101 63.7941 112.421C62.4679 111.256 62.422 111.021 63.1231 109.08C62.4633 107.754 61.82 106.42 61.1368 105.11C60.9262 104.708 60.7533 104.283 60.1576 104.219C56.7795 103.864 54.3297 101.894 52.5852 98.8738C50.8015 95.7872 50.0601 92.4513 50.6367 88.9667C51.1588 85.8095 52.8511 83.4147 55.2268 81.5236C57.9073 79.3898 60.9553 78.6862 64.3244 79.1816C66.7276 79.5371 69.0038 80.3465 70.9097 82.0498C74.1684 84.9599 75.7169 88.6477 75.5586 93.0612C75.4561 95.877 74.5238 98.3197 72.8815 100.457C72.6489 100.76 72.4835 101.12 72.2824 101.458C72.7384 102.441 73.2063 103.366 73.6014 104.321C74.0858 105.487 73.9931 105.774 72.9401 106.314C72.3587 106.613 71.7305 106.825 71.1072 107.03C68.9086 107.753 66.7152 108.489 64.4952 109.141C63.8322 109.336 63.5529 109.844 63.2887 110.352C62.9579 110.996 63.5559 111.755 64.3347 111.727C64.6767 111.715 65.029 111.633 65.3474 111.508C67.8886 110.519 70.5001 109.689 72.8359 108.225C73.276 107.949 73.7179 107.652 74.0889 107.288C74.3581 107.023 74.5107 106.628 74.6994 106.319C75.0113 106.721 75.0391 107.028 74.6979 107.493C74.5357 107.714 74.3437 107.912 74.1669 108.12C71.2357 109.857 68.1599 111.266 64.8889 112.206C64.4182 112.342 64.283 112.582 64.4616 113.169C64.8422 113.141 65.2288 113.175 65.5735 113.072C67.5595 112.481 69.5597 111.917 71.5049 111.214C72.3322 110.916 73.093 110.361 73.7942 109.802C74.2763 109.425 74.6615 108.847 74.1338 108.117ZM69.6681 106.878C70.65 106.544 71.6449 106.254 72.6013 105.86C73.3778 105.54 73.4406 105.307 73.1111 104.527C72.8394 103.881 72.5618 103.225 72.1989 102.628C71.6191 101.677 71.7811 100.879 72.4097 100.121C72.5216 99.9844 72.6335 99.8476 72.7337 99.7021C75.3491 95.9205 75.794 91.7401 74.0316 87.2995C72.4257 83.2578 69.4151 80.8804 65.4275 79.9635C60.71 78.878 56.7216 80.154 53.6204 83.8994C52.1563 85.6677 51.152 87.7 51.0413 90.1716C50.8715 93.8999 51.8341 97.2605 54.1784 100.212C55.7682 102.212 57.7281 103.439 60.1681 103.636C60.7794 103.686 61.1424 103.966 61.4122 104.504C61.8608 105.399 62.3116 106.292 62.7788 107.177C63.0689 107.728 63.3889 108.258 63.7088 108.821C64.6997 108.467 65.602 108.148 66.4829 107.833C66.4842 107.705 66.5094 107.624 66.4839 107.565C65.6886 105.729 64.9403 103.871 64.0751 102.069C63.2734 100.401 62.0928 99.0557 60.5057 98.1397C59.9471 97.8169 59.3965 97.4586 58.886 97.0528C57.335 95.8189 57.3732 94.4865 58.9619 93.4656C59.0487 93.4094 59.1419 93.3587 59.236 93.314C60.1278 92.8817 61.1352 92.7697 62.018 92.2801C62.3398 92.1024 62.8407 92.2149 63.2515 92.2727C63.5175 92.31 63.7744 92.4867 63.9592 92.5697C65.0152 90.9017 65.5222 90.8268 67.4081 91.9275C67.5935 91.8002 67.7887 91.6595 67.9898 91.528C68.9181 90.9273 69.5705 91.109 70.1902 92.1228C70.8197 93.1566 70.5602 94.1377 70.0846 95.0441C69.6562 95.8613 69.1679 96.6664 68.5893 97.3636C67.6187 98.5365 67.5844 99.8461 68.0044 101.277C68.5526 103.12 69.1007 104.962 69.6681 106.878ZM60.5531 93.4326C60.1159 93.5928 59.7486 93.6751 59.4325 93.8522C57.9831 94.6641 57.9365 95.5991 59.3093 96.6788C59.8781 97.1279 60.4987 97.5047 61.1143 97.8784C62.3774 98.647 63.4009 99.6834 64.1231 101.007C64.7407 102.142 65.2707 103.327 65.8014 104.509C66.2498 105.514 66.6427 106.547 67.0914 107.648C67.838 107.425 68.4838 107.232 69.1732 107.025C69.0834 106.663 69.0237 106.378 68.9382 106.1C68.4663 104.578 67.9643 103.067 67.5137 101.541C67.0303 99.9001 66.9621 98.3243 68.1494 97.0059C68.3821 96.7462 68.5919 96.4555 68.7669 96.1488C69.1525 95.4709 69.5351 94.7884 69.8734 94.0796C70.1201 93.5636 70.0305 93.0055 69.7895 92.4746C69.5246 91.8868 69.0882 91.6401 68.6202 91.8048C67.9849 92.0245 67.7636 92.4363 67.9158 93.1115C67.9492 93.2551 68.0093 93.3971 68.0276 93.5411C68.096 94.0706 67.8833 94.3999 67.482 94.3956C67.0693 94.3924 66.8171 94.0791 66.8412 93.5695C66.8502 93.3867 66.88 93.203 66.9251 93.0288C67.0461 92.5559 66.8317 92.2633 66.4628 92.0168C65.6443 91.4693 65.0129 91.7429 64.7109 92.7966C64.9488 93.0731 65.1979 93.3385 65.4208 93.6252C65.6835 93.9646 65.88 94.3828 65.5726 94.7271C65.3633 94.9608 64.9428 95.2096 64.7091 95.1268C64.4117 95.0211 64.12 94.6217 63.9846 94.2849C63.8446 93.9312 63.893 93.4982 63.8552 93.031C63.1791 92.8889 62.5363 92.5206 61.9155 93.0268C62.229 93.5179 62.549 93.9279 62.7685 94.3869C63.038 94.9482 62.8726 95.4716 62.5043 95.9077C62.1663 96.3097 61.4962 96.47 61.0779 96.2708C60.5348 96.0106 60.4258 95.4991 60.4214 94.969C60.4195 94.5339 60.4923 94.1007 60.5531 93.4326ZM74.4305 110.175C71.5285 112.384 68.0175 112.929 64.6262 113.935C65.218 114.752 65.9943 114.748 66.7271 114.595C68.3473 114.252 69.957 113.85 71.5546 113.409C72.1799 113.236 72.7785 112.935 73.3465 112.615C74.3672 112.034 74.6757 111.313 74.4305 110.175ZM67.4358 115.191C67.5824 116.083 68.1377 116.502 68.9151 116.721C70.1399 117.069 71.2713 116.816 72.3284 116.263C73.3093 115.749 73.7519 114.436 73.4544 113.428C71.4539 114.015 69.4498 114.601 67.4358 115.191ZM61.9226 93.9982C61.8588 93.9654 61.5936 93.7277 61.3443 93.7356C61.2157 93.7406 61.0852 94.17 61.0143 94.4286C60.9575 94.6276 60.9331 94.8775 60.9991 95.0721C61.0804 95.3195 61.2304 95.6696 61.4104 95.7259C61.6172 95.7905 61.9576 95.6467 62.1177 95.4702C62.466 95.0844 62.4089 94.6205 61.9226 93.9982ZM64.7037 94.7007C65.2482 94.0269 65.2383 93.9971 64.4044 93.5935C64.5044 93.9613 64.5807 94.2488 64.7037 94.7007Z" fill="black" fill-opacity="0.75"/>
    <path d="M45.0152 112.921C43.878 114.592 42.8349 116.304 42.2533 118.293C41.6799 120.256 41.452 122.285 41.4752 124.361C41.4986 126.457 41.6614 128.541 42.1458 130.644C43.0696 128.447 43.3271 125.941 44.7718 124.013C43.918 127.112 42.8369 130.123 42.2627 133.463C41.7214 131.885 40.341 131.274 39.4095 130.194C39.0836 129.818 38.7415 129.46 38.4853 128.996C39.6665 129.445 40.3866 130.563 41.562 131.328C41.5205 130.894 41.5078 130.586 41.4565 130.285C40.9275 127.089 40.7171 123.899 41.1704 120.715C41.5541 118.023 42.4793 115.589 44.0601 113.47C44.3713 113.06 44.3648 113.054 45.0152 112.921Z" fill="black" fill-opacity="0.75"/>
    <path d="M106.643 100.134C104.85 100.519 103.214 100.87 101.477 101.242C101.812 100.422 102.542 100.495 103.104 100.305C103.717 100.098 104.352 99.9646 105.204 99.7393C103.359 99.2304 101.743 98.7343 100.11 98.3464C98.19 97.8887 96.2613 97.4506 94.3203 97.1374C92.975 96.9217 91.6009 96.829 90.2507 96.8698C89.4201 96.8938 88.6144 97.2738 87.7457 97.507C87.589 97.1848 87.8774 97.0268 88.0756 96.8907C88.9829 96.2811 90.0415 96.1772 91.0824 96.2521C92.7524 96.3715 94.4427 96.4936 96.0835 96.8696C99.1738 97.5764 102.236 98.4654 105.311 99.2728C105.365 99.2856 105.433 99.2327 105.616 99.1699C105.062 97.8943 104.125 96.8585 103.59 95.5933C105.119 96.7196 105.9 98.3754 106.643 100.134Z" fill="black" fill-opacity="0.75"/>
    <path d="M69.2163 49.3407C70.2157 47.5216 71.2138 45.7101 72.2516 43.8214C72.9434 44.6458 73.1722 45.7481 73.6827 46.687C74.2007 47.6374 74.6481 48.6263 75.0351 49.65C74.1533 48.8161 73.6047 47.7601 72.9923 46.4314C71.6238 52.0457 70.5573 57.4658 71.0253 63.1818C70.4223 63.236 70.4556 62.8033 70.4486 62.5282C70.4143 61.2024 70.3728 59.8748 70.4199 58.5564C70.5596 54.6755 71.3785 50.9413 72.2385 47.2189C72.3199 46.8664 72.4693 46.5339 72.5898 46.1946C72.7405 45.768 72.6708 45.4094 72.2552 45.1184C71.308 46.5584 70.7503 48.2774 69.4772 49.4614C69.4525 49.4851 69.3548 49.4089 69.2163 49.3407Z" fill="black" fill-opacity="0.75"/>
    <path d="M45.1725 81.8774C44.6775 82.1007 44.3984 81.726 44.0726 81.5565C41.8791 80.4205 39.7111 79.2237 37.4846 78.1704C36.1404 77.5341 34.7068 77.1225 33.1502 76.552C33.387 77.5422 34.1314 78.1272 34.0706 79.1985C33.3431 78.5919 33.1727 77.7826 32.6935 77.2288C32.2061 76.6672 31.7525 76.0624 31.2048 75.5789C30.6439 75.0844 29.9873 74.709 29.3228 74.249C32.3529 74.2807 35.3155 74.3122 38.3004 74.345C37.652 74.8369 37.5705 74.8629 34.9733 74.9237C33.8285 74.9501 32.6819 74.9111 31.4832 74.9012C31.8345 75.533 32.2877 75.8348 32.916 75.9932C36.8158 76.9837 40.4468 78.7485 43.9576 80.8292C44.3936 81.0895 44.9146 81.2815 45.1725 81.8774Z" fill="black" fill-opacity="0.75"/>
    <path d="M16.9157 114.747C17.6232 114.141 18.2975 113.488 19.0411 112.935C23.5237 109.61 28.369 106.916 33.2537 104.288C33.3178 104.254 33.4443 104.337 33.5745 104.378C33.5479 104.946 33.0831 105.048 32.7542 105.234C31.3078 106.051 29.8414 106.831 28.3817 107.627C24.9958 109.472 21.8351 111.689 18.6782 113.917C18.1514 114.292 17.7631 114.898 16.9157 114.747Z" fill="black" fill-opacity="0.75"/>
    <path d="M14.8189 116.643C15.0326 114.784 17.5431 110.968 20.1201 108.475C20.0641 109.127 19.8603 109.513 19.2814 110.277C18.3014 111.57 17.3244 112.867 16.3838 114.192C16.0415 114.674 15.8079 115.244 15.4397 115.93C17.3702 115.857 18.9833 115.196 20.6728 114.669C20.6785 114.909 20.7169 115.089 20.6798 115.107C18.8738 116.038 16.9242 116.45 14.8189 116.643Z" fill="black" fill-opacity="0.75"/>
    <path d="M78.1176 84.3371C80.1695 82.0685 82.1648 79.7256 85.1516 78.7342C85.2052 78.794 85.2623 78.8547 85.3159 78.9146C85.215 79.0638 85.1457 79.2913 85.0043 79.3484C82.5438 80.3816 80.7773 82.3675 78.8709 84.163C78.7004 84.3233 78.486 84.4339 78.2921 84.5671C78.2361 84.489 78.1779 84.4123 78.1176 84.3371Z" fill="black" fill-opacity="0.75"/>
    <path d="M58.6222 74.787C58.2711 73.7187 57.865 72.6649 57.5862 71.5802C57.2542 70.2922 57.0224 68.9786 56.7764 67.6716C56.7137 67.3381 56.6445 66.9225 57.2401 66.7801C57.3072 69.5494 58.4927 72.0639 58.8792 74.7239C58.7933 74.7429 58.7088 74.7642 58.6222 74.787Z" fill="black" fill-opacity="0.75"/>
    <path d="M38.126 88.4346C38.3649 88.3672 38.602 88.2344 38.8408 88.2436C40.7052 88.3361 42.5576 88.5202 44.3232 89.2837C44.3159 89.3586 44.3086 89.4336 44.2991 89.5101C42.2697 89.231 40.2387 88.9497 38.2092 88.6706C38.1813 88.5932 38.1518 88.5135 38.126 88.4346Z" fill="black" fill-opacity="0.75"/>
    <path d="M85.8044 95.0187C85.6285 95.1128 85.4907 95.2474 85.3497 95.2475C84.4635 95.2564 79.8299 93.9567 79.2231 93.5537C79.9505 93.4208 85.0214 94.5268 85.8044 95.0187Z" fill="black" fill-opacity="0.75"/>
    <path d="M70.3969 74.775C71.0436 72.7251 72.559 70.8548 73.9645 70.4495C73.8662 71.2267 73.0746 71.2638 72.7901 71.8024C72.4799 72.3919 72.0301 72.8972 71.6415 73.4407C71.2823 73.9438 70.9238 74.4432 70.5646 74.9464C70.5068 74.8895 70.4526 74.8334 70.3969 74.775Z" fill="black" fill-opacity="0.75"/>
    <path d="M48.3141 99.8738C47.3903 101.581 46.2284 102.872 45.1525 104.23C45.1089 104.287 44.9156 104.21 44.7722 104.192C45.175 103.109 47.3228 100.448 48.3141 99.8738Z" fill="black" fill-opacity="0.75"/>
    <path d="M49.3315 79.001C47.8308 78.0523 46.3316 77.106 44.8365 76.1468C44.7841 76.1128 44.8049 75.9486 44.7692 75.6766C46.6712 76.2697 48.0371 77.5641 49.4512 78.7755C49.4122 78.8489 49.3726 78.9261 49.3315 79.001Z" fill="black" fill-opacity="0.75"/>
    </g>
    <rect x="55.4741" y="23.9629" width="125.1" height="120.928" rx="60.464" fill="#ECFFEC"/>
    <path d="M113.132 70.2605C113.132 70.2605 112.276 67.3239 115.73 67.3808H120.942C123.17 67.3239 124.589 68.0967 124.149 70.2605H113.132Z" fill="#D4D6E3"/>
    <path d="M118.629 67.3725V60.7754" stroke="black" stroke-width="1.5" stroke-miterlimit="10"/>
    <path d="M118.629 60.7679C119.625 60.7679 120.433 59.9157 120.433 58.8644C120.433 57.8132 119.625 56.9609 118.629 56.9609C117.632 56.9609 116.825 57.8132 116.825 58.8644C116.825 59.9157 117.632 60.7679 118.629 60.7679Z" fill="black" stroke="black" stroke-width="0.5" stroke-miterlimit="10"/>
    <path opacity="0.5" d="M118.136 46.8574V52.5516H118.636H119.136V46.8574H118.636H118.136Z" fill="black" stroke="black" stroke-miterlimit="10" stroke-linecap="round"/>
    <path opacity="0.5" d="M122.021 54.6987L125.198 51.2334" stroke="black" stroke-width="2" stroke-miterlimit="10" stroke-linecap="round"/>
    <path opacity="0.5" d="M115.097 54.658L111.913 51.2334" stroke="black" stroke-width="2" stroke-miterlimit="10" stroke-linecap="round"/>
    <path d="M109.978 70.2766L126.516 70.1709C127.209 70.2316 127.881 70.4446 128.491 70.7962C129.1 71.1479 129.633 71.6304 130.055 72.2127C130.749 73.236 131.064 74.4915 130.942 75.7431L105.845 75.678C105.912 74.2556 106.459 72.9054 107.387 71.871C108.095 71.0975 108.991 70.5457 109.978 70.2766Z" fill="#A3A2C4"/>
    <path d="M105.514 75.8164C102.006 77.0621 98.9711 79.4646 96.8566 82.6694C94.7421 85.8742 93.6603 89.7113 93.7709 93.6144C93.8815 97.5174 95.1787 101.28 97.4709 104.345C99.7631 107.411 102.929 109.618 106.501 110.64L130.187 110.844C133.866 109.903 137.148 107.707 139.524 104.597C141.899 101.487 143.234 97.6357 143.322 93.6424C143.41 89.6492 142.245 85.7371 140.01 82.5137C137.774 79.2903 134.592 76.936 130.958 75.8164H105.514Z" fill="#D5D6E1"/>
    <path d="M94.3648 86.7489C93.5102 86.4665 92.5877 86.5185 91.7665 86.8954C91.2188 87.1889 90.7434 87.6129 90.3781 88.134C90.0127 88.655 89.7674 89.2586 89.6616 89.897C89.5845 91.8168 89.5151 93.7284 89.438 95.6481C89.619 96.6065 90.1095 97.469 90.8258 98.0885C91.3175 98.4724 91.8833 98.737 92.4831 98.8636C93.0828 98.9901 93.7017 98.9754 94.2954 98.8206C93.8908 96.5939 93.7201 94.3269 93.7865 92.0608C93.8313 90.2757 94.0248 88.4982 94.3648 86.7489Z" fill="#A0A1C1"/>
    <path d="M142.823 98.7394C143.677 99.0271 144.601 98.975 145.422 98.593C145.969 98.2995 146.445 97.8754 146.81 97.3544C147.175 96.8334 147.421 96.2298 147.526 95.5914C147.596 93.6798 147.673 91.76 147.742 89.8484C147.567 88.8896 147.079 88.0261 146.362 87.408C145.871 87.0223 145.306 86.7558 144.706 86.6278C144.106 86.4999 143.487 86.5135 142.893 86.6678C143.289 88.8984 143.46 91.1671 143.402 93.4357C143.353 95.2178 143.159 96.9922 142.823 98.7394Z" fill="#A3A1C4"/>
    <path d="M108.49 79.6074C105.699 80.2625 103.187 81.8627 101.338 84.1641C99.4884 86.4655 98.4034 89.3418 98.2479 92.3544C98.0924 95.3669 98.875 98.3505 100.476 100.85C102.078 103.35 104.41 105.228 107.118 106.199L128.706 106.435C131.686 105.879 134.385 104.234 136.33 101.788C138.275 99.3414 139.341 96.2506 139.341 93.0579C139.341 89.8651 138.275 86.7744 136.33 84.3281C134.385 81.8819 131.686 80.2364 128.706 79.6806L108.49 79.6074Z" fill="#A4A3C1"/>
    <path d="M128.02 81.2828L108.143 104.686C105.722 103.849 103.63 102.193 102.193 99.9734C100.756 97.754 100.054 95.096 100.195 92.4123C100.337 89.7285 101.314 87.1691 102.976 85.1316C104.638 83.0942 106.89 81.6926 109.385 81.1445L127.696 81.2177C127.806 81.2315 127.914 81.2533 128.02 81.2828Z" fill="#343551"/>
    <path d="M137.341 93.0539C137.333 95.9153 136.356 98.6796 134.588 100.849C132.82 103.019 130.376 104.452 127.696 104.89L108.143 104.686L128.019 81.2832C130.633 81.7855 132.996 83.2382 134.699 85.3887C136.402 87.5392 137.337 90.2515 137.341 93.0539Z" fill="#25273E"/>
    <path d="M110.695 89.2627H115.683C115.717 88.8958 115.677 88.5256 115.567 88.1758C115.457 87.826 115.279 87.5044 115.044 87.2315C114.809 86.9587 114.523 86.7407 114.203 86.5915C113.884 86.4423 113.538 86.3652 113.189 86.3652C112.84 86.3652 112.494 86.4423 112.175 86.5915C111.855 86.7407 111.569 86.9587 111.334 87.2315C111.099 87.5044 110.921 87.826 110.811 88.1758C110.701 88.5256 110.661 88.8958 110.695 89.2627Z" fill="#E7E514"/>
    <path d="M121.59 89.3685L126.578 89.2302C126.612 88.8566 126.57 88.4797 126.455 88.1244C126.341 87.7691 126.156 87.4436 125.913 87.1693C125.67 86.8949 125.375 86.6781 125.047 86.5331C124.719 86.3881 124.366 86.3182 124.01 86.3281C123.654 86.3379 123.305 86.4273 122.984 86.5903C122.664 86.7533 122.38 86.9862 122.151 87.2735C121.922 87.5609 121.754 87.8963 121.657 88.2574C121.561 88.6185 121.538 88.9972 121.59 89.3685Z" fill="#E7E514"/>
    <path d="M111.682 92.9961H125.46C125.435 94.7824 124.808 96.5008 123.69 97.8426C122.572 99.1845 121.037 100.062 119.361 100.317C115.591 100.756 111.867 97.5026 111.682 92.9961Z" fill="#E7E514"/>
    <path d="M105.845 75.678C106.169 74.409 108.844 74.0999 108.844 74.0999C115.398 74.0999 122.044 74.0267 128.428 74.0999C128.428 74.0999 130.934 74.7425 130.942 75.7756C122.576 75.8326 114.211 75.5885 105.845 75.678Z" fill="#75759A"/>
    <g clip-path="url(#clip1_952_1010)">
    <path d="M178.464 26.8537C178.085 26.6929 177.669 26.5791 177.339 26.3633C174.28 24.3488 170.75 23.1452 167.081 22.199C163.81 21.3546 160.43 20.9566 156.931 21.1829C155.57 21.2716 154.208 21.4788 152.717 21.6446C153.78 20.2088 155.15 18.9546 155.337 17.1895C154.323 18.4935 153.423 19.8826 152.263 21.0769C151.102 22.2735 149.681 23.2793 148.257 24.4665C151.032 24.6806 153.969 24.3452 156.057 26.2957C155.908 24.931 154.889 24.5247 150.227 23.8212C150.818 23.1611 151.365 22.5969 152.312 22.3961C157.632 21.2634 162.738 21.6506 167.712 22.9944C170.619 23.7798 173.368 24.8686 175.947 26.2132C178.568 27.5787 181.03 29.1315 183.262 30.9841C186.305 33.5041 188.996 36.2688 191.174 39.4286C193.751 43.1683 195.54 47.2248 196.028 51.7249C196.576 56.7402 195.626 61.6374 192.838 66.3231C192.668 66.6098 192.525 66.9113 192.389 67.2098C192.362 67.2719 192.413 67.356 192.437 67.4793C192.884 67.5907 193.042 67.2537 193.201 66.9977C194.771 64.4774 195.804 61.8193 196.374 59.0461C197.545 53.3576 196.529 48.0635 194.091 43.0272C192.145 39.0102 189.287 35.5776 186.023 32.406C185.45 31.8494 184.712 31.4335 184.075 30.9298C183.802 30.714 183.6 30.4276 183.365 30.177C181.734 29.0682 180.1 27.9618 178.464 26.8537Z" fill="black" fill-opacity="0.6"/>
    </g>
    <defs>
    <clipPath id="clip0_952_1010">
    <rect width="109.247" height="65.9265" fill="white" transform="matrix(0.824368 -0.566054 0.538145 0.842852 0 93.4336)"/>
    </clipPath>
    <clipPath id="clip1_952_1010">
    <rect width="25.7774" height="63.1473" fill="white" transform="matrix(0.67103 -0.754414 -0.818654 -0.554464 192.689 67.6504)"/>
    </clipPath>
    </defs>
    </svg>
    