<svg width="36" height="42" viewBox="0 0 36 42" fill="none" xmlns="http://www.w3.org/2000/svg">
<path d="M17.8333 27.519L12.8333 21.6301M17.8333 27.519C20.1614 26.4762 22.3948 25.1609 24.5 23.5931M17.8333 27.519V37.3338C17.8333 37.3338 22.8833 36.2542 24.5 33.4079C26.3 30.2279 24.5 23.5931 24.5 23.5931M12.8333 21.6301C13.7202 18.9201 14.837 16.3224 16.1667 13.8764C18.1086 10.2194 20.8127 7.20832 24.0217 5.12963C27.2306 3.05093 30.8378 1.97373 34.5 2.00049C34.5 7.33975 33.2 16.7227 24.5 23.5931M12.8333 21.6301H4.5C4.5 21.6301 5.41667 15.6823 7.83333 13.7783C10.5333 11.6583 16.1667 13.7783 16.1667 13.7783M5.33333 30.4635C2.83333 32.9368 2 40.2783 2 40.2783C2 40.2783 8.23333 39.2968 10.3333 36.3523C11.5167 34.7035 11.5 32.1712 10.1833 30.6401C9.53551 29.9119 8.68216 29.4911 7.78704 29.4585C6.89193 29.4259 6.01813 29.7838 5.33333 30.4635Z" stroke="white" stroke-width="2.5" stroke-linecap="round" stroke-linejoin="round"/>
</svg>
