<svg width="32" height="43" viewBox="0 0 32 43" fill="none" xmlns="http://www.w3.org/2000/svg">
<path d="M20.2316 2H10.639C10.3399 2 10.1903 2 10.0583 2.05364C9.9415 2.10108 9.83514 2.1785 9.74689 2.28029C9.6471 2.39541 9.58022 2.55296 9.44644 2.86808L2.44644 19.357C2.12697 20.1095 1.96724 20.4858 2.00561 20.7916C2.03911 21.0587 2.16454 21.2977 2.35238 21.4524C2.56749 21.6296 2.92466 21.6296 3.63901 21.6296H13.9816L8.98163 41.2593L29.3035 16.4382C29.9891 15.6008 30.3319 15.1821 30.3519 14.8238C30.3693 14.5128 30.2603 14.2106 30.0581 14.0095C29.8253 13.7778 29.3314 13.7778 28.3437 13.7778H16.4816L20.2316 2Z" stroke="white" stroke-width="2.5" stroke-linecap="round" stroke-linejoin="round"/>
</svg>
