<svg width="198" height="245" viewBox="0 0 198 245" fill="none" xmlns="http://www.w3.org/2000/svg">
<g clip-path="url(#clip0_14_89)">
<path d="M122.89 77.1748C121.89 76.0716 120.719 75.0864 119.931 73.8518C112.638 62.3564 102.989 53.144 92.6211 44.6692C83.3817 37.112 73.3091 31.0171 62.1806 27.0156C57.8494 25.4609 53.3868 24.3343 48.5687 22.8801C53.4554 19.1541 59.0989 16.5086 61.6235 10.3851C57.0328 13.7014 52.704 17.4831 47.783 20.2028C42.8528 22.9281 37.327 24.6068 31.5904 26.9363C39.9841 31.5329 49.4839 34.3652 53.8287 44.2921C54.8676 39.1532 52.149 36.2819 38.4267 27.3171C40.9926 25.7454 43.3131 24.4587 46.4799 25.0379C64.2721 28.2725 79.7209 36.7045 93.709 48.4144C101.881 55.2565 109.231 62.9798 115.769 71.3922C122.414 79.938 128.36 88.9427 133.259 98.7136C139.943 112.013 145.265 125.713 148.556 140.135C152.447 157.201 153.54 174.328 150.099 191.266C146.277 210.149 137.928 226.543 124.095 239.638C123.25 240.441 122.474 241.334 121.723 242.225C121.57 242.413 121.635 242.786 121.573 243.265C122.841 244.283 123.704 243.283 124.481 242.577C132.14 235.63 138.282 227.445 143.107 218.205C153.019 199.258 155.693 178.723 153.66 157.16C152.036 139.96 146.932 123.616 140.277 107.656C139.109 104.855 137.271 102.334 135.847 99.6372C135.235 98.4807 134.921 97.1666 134.469 95.9382C130.617 89.6831 126.757 83.4338 122.89 77.1748Z" fill="black" fill-opacity="0.6"/>
</g>
<defs>
<clipPath id="clip0_14_89">
<rect width="88.41" height="232.459" fill="white" transform="matrix(0.850759 -0.525556 -0.525556 -0.850759 122.17 244.231)"/>
</clipPath>
</defs>
</svg>
