<svg width="12" height="12" viewBox="0 0 12 12" fill="none" xmlns="http://www.w3.org/2000/svg">
<path fill-rule="evenodd" clip-rule="evenodd" d="M9.24826 8.30362L11.9144 10.9735C12.0335 11.106 12.0276 11.3087 11.9011 11.4341L11.4345 11.9013C11.3719 11.9645 11.2868 12 11.1979 12C11.109 12 11.0238 11.9645 10.9613 11.9013L8.29511 9.2314C8.22136 9.1575 8.15444 9.07707 8.09514 8.99111L7.59524 8.32364C6.7681 8.98506 5.74095 9.34518 4.68245 9.34487C2.50127 9.35245 0.6059 7.84573 0.118463 5.71674C-0.368974 3.58774 0.681608 1.40466 2.64823 0.459942C4.61486 -0.484772 6.97267 0.0610084 8.32576 1.77417C9.67886 3.48732 9.66613 5.91064 8.29511 7.60945L8.96165 8.07C9.06574 8.13672 9.1619 8.21509 9.24826 8.30362ZM1.3498 4.67241C1.3498 6.51558 2.84191 8.00976 4.68251 8.00976C5.5664 8.00976 6.41409 7.65815 7.03909 7.03228C7.66409 6.4064 8.01522 5.55753 8.01522 4.67241C8.01522 2.82924 6.52311 1.33506 4.68251 1.33506C2.84191 1.33506 1.3498 2.82924 1.3498 4.67241Z" fill="#707070"/>
</svg>
