<svg width="37" height="37" viewBox="0 0 37 37" fill="none" xmlns="http://www.w3.org/2000/svg">
<path id="Icon" d="M8.66667 32.023H13.0172C13.5844 32.023 14.1481 32.0905 14.698 32.2255L19.2948 33.3426C20.2922 33.5855 21.3313 33.6092 22.3391 33.4134L27.4216 32.4246C28.7642 32.1631 29.9993 31.5202 30.9672 30.5786L34.5632 27.0806C35.5901 26.0834 35.5901 24.4651 34.5632 23.4662C33.6386 22.5668 32.1745 22.4656 31.1286 23.2283L26.9377 26.2858C26.3375 26.7246 25.6072 26.9608 24.8561 26.9608H20.8092L23.3851 26.9607C24.837 26.9607 26.0131 25.8166 26.0131 24.4043V23.893C26.0131 22.7203 25.1926 21.6977 24.0235 21.4142L20.0477 20.4473C19.4006 20.2904 18.738 20.2111 18.0719 20.2111C16.4639 20.2111 13.5532 21.5424 13.5532 21.5424L8.66667 23.5859M2 22.8778L2 32.5444C2 33.4778 2 33.9446 2.18166 34.3011C2.34144 34.6147 2.59641 34.8696 2.91002 35.0294C3.26653 35.2111 3.73325 35.2111 4.66667 35.2111H6C6.93342 35.2111 7.40013 35.2111 7.75665 35.0294C8.07025 34.8696 8.32522 34.6147 8.48501 34.3011C8.66667 33.9446 8.66667 33.4778 8.66667 32.5444V22.8778C8.66667 21.9443 8.66667 21.4776 8.48501 21.1211C8.32522 20.8075 8.07025 20.5525 7.75665 20.3927C7.40013 20.2111 6.93342 20.2111 6 20.2111H4.66667C3.73325 20.2111 3.26654 20.2111 2.91002 20.3927C2.59641 20.5525 2.34144 20.8075 2.18166 21.1211C2 21.4776 2 21.9443 2 22.8778ZM27.319 4.53151C26.3243 2.45008 24.031 1.3474 21.8007 2.41171C19.5705 3.47602 18.6203 6.00005 19.5541 8.2158C20.1312 9.58519 21.7846 12.2444 22.9635 14.0761C23.3991 14.7529 23.6169 15.0913 23.935 15.2893C24.2079 15.4591 24.5494 15.5506 24.8706 15.54C25.2451 15.5276 25.603 15.3435 26.3186 14.9751C28.2554 13.9783 31.0169 12.502 32.2014 11.6046C34.1179 10.1526 34.5926 7.48372 33.1578 5.45482C31.7229 3.42593 29.2211 3.22629 27.319 4.53151Z" stroke="white" stroke-width="2.5" stroke-linecap="round" stroke-linejoin="round"/>
</svg>
