<svg width="40" height="40" viewBox="0 0 40 40" fill="none" xmlns="http://www.w3.org/2000/svg">
<g id="Vector">
<path id="Vector_2" d="M6.01683 28.796L5.64511 28.1407C4.22126 25.6304 3.48071 22.7907 3.49736 19.9048C3.51401 17.0189 4.28729 14.1878 5.74002 11.6942C7.19274 9.20057 9.27409 7.13158 11.7763 5.69373C14.2785 4.25591 17.114 3.4995 19.9999 3.5L6.01683 28.796ZM6.01683 28.796L6.47629 28.1989M6.01683 28.796L6.47629 28.1989M6.47629 28.1989C7.36275 27.0468 8.50229 26.114 9.80679 25.4726C11.1113 24.8313 12.5458 24.4985 13.9995 24.5H14M6.47629 28.1989L14 24.5M14 24C12.4697 23.9984 10.9595 24.3487 9.58618 25.0239C8.37407 25.6199 7.29725 26.4548 6.4195 27.4766C6.45094 27.5336 6.48274 27.5906 6.51492 27.6473L14 24ZM14 24H26H14ZM14 24.5H26H26.0005M14 24.5H26.0005M26.0005 24.5C27.4542 24.4985 28.8887 24.8313 30.1932 25.4726C31.4977 26.114 32.6372 27.0468 33.5237 28.1989L33.9832 28.796M26.0005 24.5L33.9832 28.796M33.9832 28.796L34.3549 28.1407M33.9832 28.796L34.3549 28.1407M34.3549 28.1407C35.7787 25.6304 36.5193 22.7907 36.5026 19.9048M34.3549 28.1407L36.5026 19.9048M36.5026 19.9048C36.486 17.0189 35.7127 14.1878 34.26 11.6942M36.5026 19.9048L34.26 11.6942M34.26 11.6942C32.8073 9.20057 30.7259 7.13158 28.2237 5.69373M34.26 11.6942L28.2237 5.69373M28.2237 5.69373C25.7215 4.25591 22.886 3.4995 20.0001 3.5L28.2237 5.69373ZM35.4893 31.8477L35.3375 32.0455L35.3428 32.0645L34.8068 32.688L34.8064 32.6885C33.7095 33.968 32.4523 35.1006 31.0658 36.0586L31.0656 36.0587C27.8143 38.3066 23.9537 39.5073 20.0009 39.5H19.9996C17.186 39.5025 14.4055 38.8949 11.8494 37.719C9.29342 36.5432 7.02276 34.8271 5.19399 32.689L5.19319 32.688L4.65724 32.0645L4.66252 32.0455L4.51073 31.8476C1.90368 28.4492 0.493585 24.284 0.500023 20.0007V20C0.500023 9.23013 9.23015 0.5 20 0.5C30.7698 0.5 39.5 9.23013 39.5 20V20.0007C39.5063 24.284 38.0962 28.4491 35.4893 31.8477ZM16.1109 10.1109C17.1424 9.07946 18.5413 8.49999 20 8.49999C21.4587 8.49999 22.8576 9.07946 23.8891 10.1109C24.9205 11.1424 25.5 12.5413 25.5 14C25.5 15.4587 24.9205 16.8576 23.8891 17.8891C22.8576 18.9205 21.4587 19.5 20 19.5C18.5413 19.5 17.1424 18.9205 16.1109 17.8891C15.0795 16.8576 14.5 15.4587 14.5 14C14.5 12.5413 15.0795 11.1424 16.1109 10.1109Z" fill="white" stroke="white"/>
</g>
</svg>
