<svg width="140" height="146" viewBox="0 0 140 146" fill="none" xmlns="http://www.w3.org/2000/svg">
    <path d="M56.8916 54.0338C56.8916 54.0338 54.8366 47.3792 63.1307 47.5083H75.6459C80.9963 47.3976 84.4029 49.1489 83.3476 54.0522L56.8916 54.0338Z" fill="#D4D6E3"/>
    <path d="M70.0918 47.4901V32.5219" stroke="black" stroke-width="1.5" stroke-miterlimit="10"/>
    <path d="M70.0919 32.5216C72.4845 32.5216 74.4241 30.5904 74.4241 28.2081C74.4241 25.8258 72.4845 23.8946 70.0919 23.8946C67.6993 23.8946 65.7598 25.8258 65.7598 28.2081C65.7598 30.5904 67.6993 32.5216 70.0919 32.5216Z" fill="black" stroke="black" stroke-width="0.5" stroke-miterlimit="10"/>
    <g opacity="0.5">
    <path d="M70.1113 13.9036V1V13.9036Z" fill="#D6D6E0"/>
    <path d="M70.1113 13.9036V1" stroke="#CCCCCC" stroke-width="2" stroke-miterlimit="10" stroke-linecap="round"/>
    </g>
    <path opacity="0.5" d="M78.2383 18.7704L85.8659 10.9176" stroke="#CCCCCC" stroke-width="2" stroke-miterlimit="10" stroke-linecap="round"/>
    <path opacity="0.5" d="M61.6129 18.6782L53.9668 10.9176" stroke="#B3B3B3" stroke-width="2" stroke-miterlimit="10" stroke-linecap="round"/>
    <path d="M49.3198 54.0711L89.0315 53.8314C90.694 53.9689 92.309 54.4516 93.7727 55.2485C95.2363 56.0454 96.516 57.1388 97.5293 58.4583C99.1953 60.7772 99.9525 63.6225 99.6583 66.4585L39.3965 66.3111C39.56 63.0828 40.8726 60.0179 43.0992 57.6656C44.8028 55.9226 46.9546 54.6791 49.3198 54.0711Z" fill="#A3A2C4"/>
    <path d="M38.6016 66.6243C30.176 69.4416 22.8842 74.8831 17.8038 82.1445C12.7234 89.406 10.1239 98.1022 10.3896 106.948C10.6553 115.794 13.772 124.32 19.2792 131.266C24.7863 138.212 32.3917 143.21 40.9714 145.521L97.8452 146C106.68 143.869 114.562 138.893 120.265 131.844C125.968 124.796 129.175 116.069 129.386 107.02C129.597 97.971 126.801 89.1057 121.432 81.8011C116.064 74.4965 108.423 69.1614 99.6965 66.6243H38.6016Z" fill="#D5D6E1"/>
    <path d="M11.8302 91.3993C9.77809 90.7593 7.5631 90.8771 5.59112 91.7311C4.27427 92.3939 3.13139 93.3542 2.25381 94.5353C1.37622 95.7164 0.788255 97.0855 0.536911 98.5332C0.351775 102.884 0.185136 107.215 0 111.547C0.4257 113.723 1.60516 115.68 3.33246 117.078C4.51025 117.953 5.86831 118.557 7.30889 118.847C8.74947 119.137 10.2367 119.106 11.6636 118.755C10.692 113.709 10.2822 108.572 10.4417 103.437C10.5492 99.3914 11.0138 95.3634 11.8302 91.3993Z" fill="#A0A1C1"/>
    <path d="M128.188 118.57C130.239 119.212 132.455 119.094 134.427 118.239C135.742 117.574 136.883 116.613 137.76 115.432C138.638 114.251 139.227 112.883 139.481 111.437C139.647 107.105 139.833 102.754 139.999 98.4224C139.578 96.2497 138.406 94.2928 136.685 92.8923C135.507 92.018 134.149 91.4143 132.708 91.1243C131.268 90.8342 129.781 90.8652 128.354 91.2148C130.08 100.239 130.023 109.512 128.188 118.515V118.57Z" fill="#A3A1C4"/>
    <path d="M45.7477 75.2512C39.2462 76.6752 33.3684 80.1221 28.965 85.0931C24.5616 90.064 21.8611 96.3012 21.2541 102.902C20.6262 109.913 22.3719 116.932 26.2133 122.841C30.0547 128.75 35.771 133.21 42.4522 135.511L94.2904 136.046C101.446 134.786 107.927 131.057 112.597 125.514C117.266 119.97 119.826 112.966 119.826 105.731C119.826 98.4962 117.266 91.4923 112.597 85.9488C107.927 80.4053 101.446 76.6766 94.2904 75.4171L45.7477 75.2512Z" fill="#A4A3C1"/>
    <path d="M92.606 78.9381L44.9149 132.046C39.1012 130.15 34.0789 126.396 30.6278 121.367C27.1768 116.337 25.4902 110.314 25.83 104.232C26.1698 98.1507 28.517 92.3509 32.507 87.7337C36.497 83.1165 41.9066 79.9404 47.8956 78.6985L91.8655 78.9381C92.1121 78.9222 92.3594 78.9222 92.606 78.9381Z" fill="#343551"/>
    <path d="M115.025 105.685C115.005 112.17 112.661 118.434 108.415 123.351C104.169 128.268 98.3004 131.514 91.8646 132.506L44.9141 132.046L92.6051 78.9379C98.8992 80.0707 104.593 83.3701 108.691 88.2595C112.79 93.1488 115.032 99.3169 115.025 105.685Z" fill="#25273E"/>
    <path d="M69.5564 120.248H56.782C55.5573 120.246 54.358 119.9 53.3223 119.249C52.2867 118.598 51.4569 117.669 50.9286 116.569C50.4003 115.468 50.195 114.242 50.3364 113.031C50.4778 111.819 50.9602 110.673 51.7278 109.722L56.3933 103.953L64.5022 93.9062C65.1132 93.1553 65.8849 92.5498 66.7609 92.1339C67.6369 91.718 68.5952 91.5022 69.5657 91.5022C70.5362 91.5022 71.4945 91.718 72.3705 92.1339C73.2466 92.5498 74.0182 93.1553 74.6292 93.9062L82.7196 103.953L87.4036 109.722C88.1722 110.674 88.6548 111.822 88.7955 113.035C88.9362 114.248 88.7294 115.476 88.1988 116.577C87.6683 117.678 86.8357 118.607 85.7973 119.256C84.7589 119.906 83.5572 120.25 82.3309 120.248H69.5564Z" stroke="#D3FC62" stroke-width="2" stroke-miterlimit="10" stroke-linecap="round"/>
    <path d="M69.5547 107.51V98.2749" stroke="#D3FC62" stroke-width="2" stroke-miterlimit="10" stroke-linecap="round"/>
    <path d="M69.5561 116.635C70.8956 116.635 71.9814 115.554 71.9814 114.22C71.9814 112.887 70.8956 111.805 69.5561 111.805C68.2167 111.805 67.1309 112.887 67.1309 114.22C67.1309 115.554 68.2167 116.635 69.5561 116.635Z" fill="#D3FC62"/>
    </svg>
    